<svg xmlns="http://www.w3.org/2000/svg" viewBox="0 0 705.65 705.65">
    <defs>
        <style>
            .cls-1 {
                fill: #BB522F;
            }
        </style>
    </defs>
    <g id="katman_2" data-name="katman 2">
        <g id="Graphic_Elements" data-name="Graphic Elements">
            <path class="cls-1" d="M352.52,705.65a12.26,12.26,0,1,1,12.22-12.32A12.26,12.26,0,0,1,352.52,705.65Z" />
            <path class="cls-1" d="M352.37,668.87a12.26,12.26,0,1,1,12.21-12.32A12.27,12.27,0,0,1,352.37,668.87Z" />
            <path class="cls-1" d="M352.21,632.09a12.26,12.26,0,1,1,12.21-12.32A12.27,12.27,0,0,1,352.21,632.09Z" />
            <path class="cls-1" d="M352.05,595.31A12.26,12.26,0,1,1,364.26,583,12.26,12.26,0,0,1,352.05,595.31Z" />
            <path class="cls-1" d="M351.89,558.53a12.26,12.26,0,1,1,12.21-12.32A12.26,12.26,0,0,1,351.89,558.53Z" />
            <path class="cls-1" d="M351.73,521.75a12.26,12.26,0,1,1,12.21-12.32A12.26,12.26,0,0,1,351.73,521.75Z" />
            <path class="cls-1" d="M351.58,485a12.26,12.26,0,1,1,12.21-12.31A12.28,12.28,0,0,1,351.58,485Z" />
            <path class="cls-1" d="M0,352.53a12.26,12.26,0,1,1,12.31,12.2A12.26,12.26,0,0,1,0,352.53Z" />
            <path class="cls-1" d="M36.78,352.37a12.26,12.26,0,1,1,12.31,12.2A12.26,12.26,0,0,1,36.78,352.37Z" />
            <path class="cls-1" d="M73.56,352.21a12.26,12.26,0,1,1,12.31,12.21A12.26,12.26,0,0,1,73.56,352.21Z" />
            <path class="cls-1" d="M110.34,352.05a12.26,12.26,0,1,1,12.31,12.21A12.26,12.26,0,0,1,110.34,352.05Z" />
            <path class="cls-1" d="M147.12,351.89a12.26,12.26,0,1,1,12.31,12.21A12.26,12.26,0,0,1,147.12,351.89Z" />
            <path class="cls-1" d="M183.9,351.74a12.26,12.26,0,1,1,12.31,12.2A12.26,12.26,0,0,1,183.9,351.74Z" />
            <path class="cls-1" d="M220.68,351.58A12.26,12.26,0,1,1,233,363.78,12.27,12.27,0,0,1,220.68,351.58Z" />
            <path class="cls-1" d="M353.12,0a12.26,12.26,0,1,1-12.2,12.31A12.26,12.26,0,0,1,353.12,0Z" />
            <path class="cls-1" d="M353.28,36.78a12.26,12.26,0,1,1-12.21,12.31A12.25,12.25,0,0,1,353.28,36.78Z" />
            <path class="cls-1" d="M353.44,73.56a12.26,12.26,0,1,1-12.21,12.31A12.26,12.26,0,0,1,353.44,73.56Z" />
            <path class="cls-1" d="M353.6,110.34a12.26,12.26,0,1,1-12.21,12.31A12.26,12.26,0,0,1,353.6,110.34Z" />
            <path class="cls-1" d="M353.76,147.12a12.26,12.26,0,1,1-12.21,12.31A12.27,12.27,0,0,1,353.76,147.12Z" />
            <path class="cls-1" d="M353.92,183.9a12.26,12.26,0,1,1-12.21,12.31A12.26,12.26,0,0,1,353.92,183.9Z" />
            <path class="cls-1" d="M354.07,220.68A12.26,12.26,0,1,1,341.87,233,12.26,12.26,0,0,1,354.07,220.68Z" />
            <path class="cls-1" d="M705.65,353.12a12.26,12.26,0,1,1-12.31-12.21A12.28,12.28,0,0,1,705.65,353.12Z" />
            <path class="cls-1" d="M668.87,353.28a12.27,12.27,0,1,1-12.31-12.21A12.26,12.26,0,0,1,668.87,353.28Z" />
            <path class="cls-1" d="M632.09,353.44a12.26,12.26,0,1,1-12.32-12.21A12.26,12.26,0,0,1,632.09,353.44Z" />
            <path class="cls-1" d="M595.31,353.6A12.26,12.26,0,1,1,583,341.39,12.26,12.26,0,0,1,595.31,353.6Z" />
            <path class="cls-1" d="M558.53,353.75a12.26,12.26,0,1,1-12.31-12.2A12.27,12.27,0,0,1,558.53,353.75Z" />
            <path class="cls-1" d="M521.75,353.91a12.26,12.26,0,1,1-12.31-12.21A12.27,12.27,0,0,1,521.75,353.91Z" />
            <path class="cls-1" d="M485,354.07a12.26,12.26,0,1,1-12.32-12.21A12.28,12.28,0,0,1,485,354.07Z" />
            <path class="cls-1" d="M198.43,504.91a12.26,12.26,0,1,1,17.33-.08A12.25,12.25,0,0,1,198.43,504.91Z" />
            <path class="cls-1" d="M226.48,476.61a12.26,12.26,0,1,1,17.34-.07A12.27,12.27,0,0,1,226.48,476.61Z" />
            <path class="cls-1" d="M254.53,448.32a12.26,12.26,0,1,1,17.34-.08A12.26,12.26,0,0,1,254.53,448.32Z" />
            <path class="cls-1" d="M197.11,198.44a12.26,12.26,0,1,1,.07,17.34A12.25,12.25,0,0,1,197.11,198.44Z" />
            <path class="cls-1" d="M225.4,226.49a12.26,12.26,0,1,1,.07,17.34A12.26,12.26,0,0,1,225.4,226.49Z" />
            <path class="cls-1" d="M253.7,254.55a12.26,12.26,0,1,1,.07,17.33A12.24,12.24,0,0,1,253.7,254.55Z" />
            <path class="cls-1" d="M503.58,197.12a12.26,12.26,0,1,1-17.34.08A12.27,12.27,0,0,1,503.58,197.12Z" />
            <path class="cls-1" d="M475.52,225.42a12.26,12.26,0,1,1-17.34.07A12.26,12.26,0,0,1,475.52,225.42Z" />
            <path class="cls-1" d="M447.47,253.71a12.26,12.26,0,1,1-17.34.08A12.26,12.26,0,0,1,447.47,253.71Z" />
            <path class="cls-1" d="M504.89,503.59a12.26,12.26,0,1,1-.07-17.34A12.25,12.25,0,0,1,504.89,503.59Z" />
            <path class="cls-1" d="M476.6,475.54a12.26,12.26,0,1,1-.08-17.34A12.26,12.26,0,0,1,476.6,475.54Z" />
            <path class="cls-1" d="M448.3,447.48a12.26,12.26,0,1,1-.07-17.33A12.27,12.27,0,0,1,448.3,447.48Z" />
            <path class="cls-1" d="M401.75,350.79a47.12,47.12,0,1,1-47.32-46.91A47.12,47.12,0,0,1,401.75,350.79Z" />
        </g>
    </g>
</svg>