<svg width="2338" height="409" viewBox="0 0 2338 409" fill="none" xmlns="http://www.w3.org/2000/svg">
    <path fill-rule="evenodd" clip-rule="evenodd"
        d="M2338 18.1564C2265.17 -0.644876 2193.62 -5.02622 2118.41 22.8585C2088.35 34.0025 2060.68 49.0826 2033.04 64.1468C1999.58 82.3833 1966.16 100.596 1928.6 111.774C1848.79 135.627 1769.65 99.5529 1699.52 67.588L1699.52 67.587L1699.5 67.5795C1692.1 64.2041 1684.79 60.8746 1677.6 57.6663C1603.32 24.5713 1528.7 -1.56736 1442.86 3.95064C1401.07 6.64428 1364.28 17.288 1328.73 35.5157C1314.76 42.6771 1301.46 50.7304 1288.18 58.7764L1288.18 58.7773L1288.18 58.7798L1288.17 58.7805L1288.17 58.785C1278.87 64.4168 1269.58 70.0452 1260.07 75.3615C1254.92 78.1329 1249.77 80.8792 1244.58 83.575C1244.39 83.6714 1244.19 83.7675 1244 83.8635V83.8763C1220.59 96.0231 1196.59 107.125 1170.6 114.858C1090.79 138.711 1011.65 102.637 941.522 70.672L941.52 70.671L941.518 70.67L941.516 70.669L941.513 70.668L941.511 70.667L941.509 70.6659C934.102 67.2896 926.796 63.9592 919.6 60.7503C845.32 27.6553 770.697 1.51665 684.864 7.03466C643.072 9.72829 606.275 20.3721 570.727 38.5998C556.755 45.7623 543.458 53.817 530.174 61.8644C505.165 77.0145 480.2 92.1384 450.846 101.233C386.003 121.365 316.794 86.3497 254.746 54.9572C233.332 44.1229 212.77 33.72 193.536 26.1647C133.779 2.70284 60.0774 -13.9567 0 16.6186V57.3376C57.8704 5.7614 150.21 39.9975 214.096 69.1319C225.249 74.2169 236.441 79.6061 247.713 85.0333L247.715 85.0341L247.716 85.0348L247.718 85.0355L247.719 85.0363L247.721 85.037L247.725 85.039C310.765 115.392 376.27 146.933 450.987 133.112C485.631 126.71 516.389 108.033 544.995 90.6628L545.006 90.6559L545.037 90.6371C548.024 88.8234 550.987 87.0241 553.929 85.2545C598.906 58.1744 639.996 40.4958 696.245 36.8738C777.502 31.6561 849.471 63.8767 919.087 95.0439C929.025 99.4933 938.915 103.921 948.778 108.216C1019.28 138.905 1092.62 164.442 1172.63 146.358C1200.46 140.067 1226.08 129.048 1250.86 116.405C1265.83 109.628 1280.1 101.387 1293.85 93.1169C1313.55 82.1678 1333.22 71.3478 1353.59 62.3194C1435.09 26.2061 1513.7 33.9776 1593 56.9873V56.8832C1621.68 67.1549 1649.57 79.6393 1677.09 91.9591L1677.09 91.96L1677.1 91.966C1687.03 96.4133 1696.92 100.839 1706.78 105.132C1777.28 135.821 1850.62 161.358 1930.63 143.274C1973.55 133.571 2011.22 112.622 2048.64 91.8128C2069.42 80.2612 2090.11 68.7528 2111.59 59.2355C2188.64 25.0966 2263.1 30.1752 2338 50.2708V18.1564ZM2338 103.518C2265.17 84.7137 2193.63 80.33 2118.41 108.217C2088.35 119.361 2060.68 134.441 2033.04 149.505L2033.04 149.505C1999.58 167.742 1966.16 185.955 1928.6 197.132C1848.74 220.953 1769.55 184.867 1699.39 152.897L1699.38 152.893L1699.37 152.886L1699.3 152.854L1699.27 152.844C1691.95 149.506 1684.72 146.212 1677.6 143.037C1603.32 109.929 1528.7 83.8038 1442.86 89.3218C1401.07 92.0023 1364.27 102.659 1328.73 120.887C1314.76 128.049 1301.46 136.102 1288.18 144.147L1288.17 144.149L1288.17 144.15L1288.17 144.152C1278.99 149.712 1269.82 155.268 1260.43 160.524C1255.05 163.422 1249.66 166.293 1244.24 169.109L1244 169.229V169.234C1220.59 181.381 1196.59 192.482 1170.6 200.216C1090.74 224.037 1011.55 187.951 941.389 155.981L941.381 155.977C934.018 152.622 926.754 149.312 919.6 146.121C845.32 113.013 770.696 86.8878 684.864 92.4058C643.071 95.0864 606.275 105.743 570.727 123.971C556.755 131.133 543.459 139.186 530.176 147.231L530.175 147.232L530.173 147.233L530.172 147.234C505.164 162.38 480.199 177.501 450.846 186.604C386.015 206.729 316.839 171.739 254.806 140.363C233.366 129.518 212.779 119.106 193.52 111.549C133.783 88.0891 60.0749 71.4304 0 101.982V142.708C57.8704 91.1327 150.21 125.369 214.096 154.503C225.252 159.59 236.449 164.981 247.724 170.41C310.764 200.763 376.27 232.304 450.986 218.483C485.631 212.081 516.388 193.404 544.994 176.034L544.998 176.032L545.013 176.023C548.008 174.204 550.979 172.4 553.929 170.626C598.906 143.546 639.996 125.867 696.244 122.245C777.499 117.016 849.466 149.243 919.069 180.412C929.008 184.862 938.899 189.291 948.762 193.587C1019.28 224.276 1092.62 249.813 1172.63 231.729C1200.46 225.438 1226.08 214.42 1250.86 201.777C1265.83 194.999 1280.1 186.757 1293.85 178.487C1313.55 167.538 1333.22 156.719 1353.59 147.691C1435.09 111.567 1513.7 119.294 1593 142.321V142.251C1621.68 152.523 1649.56 165.008 1677.07 177.328L1677.08 177.333C1687.02 181.782 1696.9 186.209 1706.76 190.503C1777.28 221.192 1850.62 246.729 1930.63 228.645C1973.55 218.942 2011.22 197.993 2048.64 177.184L2048.65 177.181C2069.42 165.63 2090.12 154.123 2111.59 144.607C2188.64 110.458 2263.1 115.497 2338 135.602V103.518ZM2338 188.901C2265.17 170.103 2193.63 165.713 2118.42 193.598C2088.36 204.746 2060.69 219.824 2033.06 234.885C1999.59 253.122 1966.17 271.334 1928.6 282.514C1848.75 306.318 1769.58 270.25 1699.43 238.294L1699.43 238.292C1692.05 234.931 1684.77 231.615 1677.6 228.419C1603.32 195.298 1528.7 169.172 1442.86 174.69C1401.07 177.384 1364.27 188.027 1328.73 206.255C1314.75 213.418 1301.46 221.472 1288.17 229.52L1288.17 229.521L1288.17 229.522C1278.79 235.207 1269.41 240.89 1259.8 246.251C1254.8 248.939 1249.8 251.604 1244.77 254.221C1244.51 254.349 1244.26 254.476 1244 254.603V254.619C1220.59 266.765 1196.59 277.864 1170.6 285.598C1090.75 309.402 1011.58 273.334 941.431 241.378C934.051 238.016 926.77 234.699 919.6 231.503C845.32 198.382 770.696 172.256 684.864 177.774C643.071 180.468 606.275 191.111 570.727 209.339C556.754 216.502 543.458 224.556 530.174 232.604C505.165 247.754 480.199 262.878 450.846 271.973C386.01 292.102 316.809 257.097 254.767 225.713C233.345 214.876 212.776 204.472 193.535 196.917C133.778 173.455 60.0773 156.796 0 187.371V228.077C57.8704 176.501 150.21 210.737 214.096 239.871C225.245 244.955 236.434 250.342 247.702 255.767L247.704 255.768L247.706 255.768C310.751 286.122 376.262 317.662 450.986 303.852C485.651 297.445 516.425 278.761 545.045 261.384L545.046 261.384L545.047 261.383L545.049 261.382L545.05 261.381L545.051 261.38L545.053 261.38L545.054 261.379L545.055 261.378L545.056 261.377L545.058 261.377L545.059 261.376L545.06 261.375L545.078 261.364L545.179 261.303L545.253 261.258C548.167 259.489 551.058 257.734 553.929 256.007C598.906 228.914 639.996 211.235 696.244 207.626C777.49 202.398 849.449 234.617 919.056 265.782C929.004 270.236 938.905 274.669 948.778 278.968C1019.28 309.657 1092.62 335.194 1172.63 317.11C1200.51 310.807 1226.18 299.756 1251.01 287.08C1265.92 280.323 1280.13 272.119 1293.82 263.884C1313.53 252.93 1333.21 242.104 1353.59 233.072C1435.09 196.948 1513.7 204.676 1593 227.709V227.631C1621.67 237.9 1649.55 250.381 1677.06 262.698C1687 267.152 1696.9 271.585 1706.78 275.884C1777.28 306.573 1850.62 332.11 1930.63 314.026C1973.55 304.323 2011.22 283.374 2048.64 262.565L2048.65 262.564C2069.42 251.013 2090.12 239.505 2111.59 229.988C2188.64 195.839 2263.1 200.878 2338 220.989V188.901ZM2338 274.294C2265.17 255.489 2193.63 251.106 2118.41 278.992C2088.36 290.138 2060.7 305.212 2033.07 320.269L2033.07 320.271C1999.6 338.511 1966.17 356.727 1928.6 367.908C1848.74 391.704 1769.55 355.619 1699.4 323.65L1699.38 323.644L1699.38 323.642C1692.02 320.287 1684.75 316.977 1677.6 313.787C1603.32 280.679 1528.7 254.553 1442.86 260.071C1401.07 262.765 1364.27 273.409 1328.73 291.636C1314.75 298.799 1301.46 306.854 1288.17 314.901C1278.57 320.719 1268.97 326.533 1259.13 332.003C1254.57 334.455 1250 336.886 1245.41 339.278C1244.94 339.515 1244.47 339.75 1244 339.984V340.014C1220.59 352.159 1196.59 363.258 1170.6 370.992C1090.74 394.788 1011.55 358.703 941.396 326.734L941.384 326.728L941.379 326.726C934.017 323.371 926.754 320.061 919.6 316.871C845.32 283.763 770.696 257.637 684.864 263.155C643.071 265.849 606.275 276.493 570.727 294.721C556.755 301.883 543.458 309.938 530.174 317.985C505.165 333.135 480.2 348.259 450.846 357.354C386.015 377.479 316.839 342.489 254.806 311.112C233.366 300.268 212.779 289.855 193.52 282.298C133.783 258.839 60.075 242.18 0 272.744V313.471C57.8704 261.895 150.21 296.132 214.096 325.279C225.256 330.365 236.455 335.756 247.734 341.185L247.737 341.186L247.738 341.187L247.74 341.187C310.775 371.528 376.274 403.054 450.971 389.246C485.575 382.854 516.278 364.226 544.854 346.889L544.865 346.883C547.91 345.035 550.931 343.203 553.929 341.401C598.906 314.295 639.996 296.63 696.245 293.021C777.472 287.793 849.418 319.997 919.01 351.147L919.012 351.148L919.013 351.148L919.014 351.149L919.015 351.149L919.016 351.15C928.978 355.609 938.892 360.046 948.778 364.349C1019.28 395.052 1092.62 420.576 1172.63 402.505C1200.53 396.193 1226.2 385.135 1251.04 372.454C1265.89 365.717 1280.05 357.545 1293.7 349.342C1313.45 338.367 1333.17 327.517 1353.59 318.466C1435.09 282.343 1513.7 290.07 1593 313.096V313.024C1621.66 323.286 1649.52 335.757 1677.01 348.063L1677.01 348.064C1686.98 352.524 1696.89 356.962 1706.78 361.265C1777.28 391.968 1850.62 417.492 1930.63 399.421C1973.55 389.71 2011.22 368.764 2048.64 347.958L2048.64 347.957L2048.65 347.955C2069.42 336.405 2090.12 324.899 2111.59 315.382C2188.64 281.234 2263.1 286.272 2338 306.378V274.294Z"
        fill="#BB522F" />
</svg>