<svg width="771" height="905" viewBox="0 0 771 905" fill="none" xmlns="http://www.w3.org/2000/svg">
    <path fill-rule="evenodd" clip-rule="evenodd"
        d="M0 478.293C6.54269 476.134 5.21472 467.162 16.5834 469.516C16.7346 471.351 16.4755 473.565 19.207 472.938C19.261 478.909 17.6091 478.261 16.7778 484.707C8.63721 488.01 1.31717 487.654 0 478.293Z"
        fill="#BB522F" />
    <path fill-rule="evenodd" clip-rule="evenodd"
        d="M11.8006 537.674C10.1163 531.823 13.5604 528.389 15.2123 522.635C19.7684 521.22 20.373 524.492 24.3785 523.714C21.6794 530.397 23.612 533.701 27.7686 538.441C22.7159 539.52 23.0937 540.902 16.875 542.835C17.4364 539.305 12.1677 538.624 11.8006 537.674Z"
        fill="#BB522F" />
    <path fill-rule="evenodd" clip-rule="evenodd"
        d="M31.9253 575.797C41.5126 576.067 47.9041 587.187 38.7919 593.33C34.8404 592.628 30.0143 593.438 26.2679 592.251C23.3421 584.348 25.6957 579.295 31.9253 575.797Z"
        fill="#BB522F" />
    <path fill-rule="evenodd" clip-rule="evenodd"
        d="M45.5182 631.15C50.0312 629.682 55.6345 625.86 59.0354 626.756C59.6508 627.458 59.9639 628.829 61.1947 628.365C69.5728 645.823 39.8285 651.307 45.5182 631.15Z"
        fill="#BB522F" />
    <path fill-rule="evenodd" clip-rule="evenodd"
        d="M74.9496 692.766C70.631 684.183 85.433 668.615 91.9217 681.031C93.7247 684.583 91.2307 690.909 87.6031 694.634C83.9755 698.359 78.3721 699.87 74.9496 692.766Z"
        fill="#BB522F" />
    <path fill-rule="evenodd" clip-rule="evenodd"
        d="M111.754 726.667C124.807 715.504 138.562 739.515 124.224 745.464C114.54 741.491 116.343 730.154 111.754 726.667Z"
        fill="#BB522F" />
    <path fill-rule="evenodd" clip-rule="evenodd"
        d="M212.788 826.74C216.373 820.402 221.609 809.465 229.987 813.449C237.286 823.782 226.889 840.419 212.788 826.74Z"
        fill="#BB522F" />
    <path fill-rule="evenodd" clip-rule="evenodd"
        d="M163.826 774.28C168.642 768.309 174.223 774.453 180.734 777.972C182.191 782.291 182.224 786.88 176.037 792.364C166.072 788.823 158.126 781.352 163.826 774.28Z"
        fill="#BB522F" />
    <path fill-rule="evenodd" clip-rule="evenodd"
        d="M251.861 852.695C253.254 845.99 244.714 842.838 252.466 834.103C254.15 834.848 255.964 836.144 256.784 833.466C262.042 836.273 260.639 837.396 265.875 841.196C264.731 849.866 260.725 856.031 251.861 852.695Z"
        fill="#BB522F" />
    <path fill-rule="evenodd" clip-rule="evenodd"
        d="M309.331 871.848C303.404 870.455 302.108 865.834 297.908 861.634C298.988 856.981 302.119 858.028 303.436 854.163C307.873 859.853 311.89 859.302 317.871 858.687C316.306 863.632 317.634 864.085 316.187 870.477C313.466 867.972 310.303 872.064 309.331 871.848Z"
        fill="#BB522F" />
    <path fill-rule="evenodd" clip-rule="evenodd"
        d="M352.366 873.446C353.434 871.595 355.036 870.109 356.962 869.182C358.888 868.256 361.049 867.932 363.162 868.253C367.082 868.609 370.515 871.265 370.904 876.696C368.323 879.805 366.585 884.404 363.724 887.114C355.346 885.84 352.366 880.183 352.366 873.446Z"
        fill="#BB522F" />
    <path fill-rule="evenodd" clip-rule="evenodd"
        d="M407.028 889.856C408.011 885.203 407.493 878.466 409.976 875.918C410.894 875.713 412.243 876.091 412.427 874.838C431.774 875.789 421.647 904.497 407.028 889.856Z"
        fill="#BB522F" />
    <path fill-rule="evenodd" clip-rule="evenodd"
        d="M475.046 894.607C465.481 894.294 459.413 873.867 473.395 874.094C481.244 874.169 490.766 895.039 475.046 894.607Z"
        fill="#BB522F" />
    <path fill-rule="evenodd" clip-rule="evenodd"
        d="M522.821 879.589C521.277 871.135 527.496 867.367 533.801 867.594C540.106 867.821 546.541 870.995 545.451 878.941C537.31 886.013 528.133 877.441 522.821 879.589Z"
        fill="#BB522F" />
    <path fill-rule="evenodd" clip-rule="evenodd"
        d="M660.217 842.859C656.417 836.381 649.745 826.837 657.281 821.352C669.567 819.603 679.1 837.396 660.217 842.859Z"
        fill="#BB522F" />
    <path fill-rule="evenodd" clip-rule="evenodd"
        d="M590.17 858.87C587.449 851.831 595.32 849.413 601.69 845.688C606.235 846.768 610.327 849.197 611.925 857.219C603.525 863.157 593.538 867.583 590.17 858.87Z"
        fill="#BB522F" />
    <path fill-rule="evenodd" clip-rule="evenodd"
        d="M702.313 822.065C697.163 817.433 689.897 822.864 686.28 811.917C687.813 810.912 689.908 810.092 687.986 808.03C693.255 805.19 693.384 806.767 699.171 803.949C706.092 809.163 709.449 815.792 702.313 822.065Z"
        fill="#BB522F" />
    <path fill-rule="evenodd" clip-rule="evenodd"
        d="M747.205 781.319C743.189 785.94 738.568 784.839 733.029 786.534C729.542 783.295 731.949 781.006 729.24 777.897C736.225 776.698 737.661 772.844 739.96 767.176C743.459 771.008 744.473 770.037 749.278 774.463C745.845 775.705 747.842 780.596 747.205 781.319Z"
        fill="#BB522F" />
    <path fill-rule="evenodd" clip-rule="evenodd"
        d="M770.126 744.902C765.418 736.265 772.436 725.749 782.347 730.586C783.654 734.3 786.742 738.057 787.53 741.825C781.926 748.141 776.075 748.357 770.126 744.902Z"
        fill="#BB522F" />
    <path fill-rule="evenodd" clip-rule="evenodd"
        d="M811.595 705.733C808.086 702.58 801.943 699.6 801.101 696.253C801.436 695.39 802.516 694.472 801.533 693.684C807.45 686.126 814.597 687.454 818.494 691.913C822.392 696.372 821.906 703.541 811.595 705.733Z"
        fill="#BB522F" />
    <path fill-rule="evenodd" clip-rule="evenodd"
        d="M850.161 649.451C845.302 657.677 824.713 652.765 831.558 640.608C835.38 633.763 858.085 635.922 850.161 649.451Z"
        fill="#BB522F" />
    <path fill-rule="evenodd" clip-rule="evenodd"
        d="M860.871 600.532C844.676 594.788 859.683 571.273 871.786 580.634C872.822 590.879 861.821 594.896 860.871 600.532Z"
        fill="#BB522F" />
    <path fill-rule="evenodd" clip-rule="evenodd"
        d="M897.298 463.178C890.01 463.254 877.864 464.258 877.4 454.951C883.057 443.41 902.588 444.09 897.298 463.178Z"
        fill="#BB522F" />
    <path fill-rule="evenodd" clip-rule="evenodd"
        d="M876.795 531.866C869.335 530.71 870.998 522.656 870.803 515.25C873.934 511.849 878.005 509.528 885.8 512.13C886.944 522.397 886.016 533.291 876.795 531.866Z"
        fill="#BB522F" />
    <path fill-rule="evenodd" clip-rule="evenodd"
        d="M900.256 416.321C893.713 418.481 895.041 427.453 883.673 425.099C883.521 423.274 883.781 421.05 881.049 421.676C881.049 415.717 882.647 416.365 883.478 409.919C891.63 406.583 898.939 406.961 900.256 416.321Z"
        fill="#BB522F" />
    <path fill-rule="evenodd" clip-rule="evenodd"
        d="M888.456 356.93C890.14 362.771 886.696 366.215 885.055 371.959C880.488 373.373 879.883 370.102 875.878 370.879C878.577 364.207 876.644 360.892 872.488 356.152C877.541 355.073 877.163 353.691 883.382 351.758C882.82 355.321 888.089 356.001 888.456 356.93Z"
        fill="#BB522F" />
    <path fill-rule="evenodd" clip-rule="evenodd"
        d="M868.331 318.829C858.744 318.559 852.352 307.439 861.464 301.285C865.416 301.986 870.242 301.187 873.988 302.364C876.914 310.267 874.517 315.32 868.331 318.829Z"
        fill="#BB522F" />
    <path fill-rule="evenodd" clip-rule="evenodd"
        d="M854.738 263.443C850.225 264.922 844.622 268.744 841.221 267.848C840.605 267.146 840.292 265.764 839.116 266.228C830.684 248.803 860.482 243.318 854.738 263.443Z"
        fill="#BB522F" />
    <path fill-rule="evenodd" clip-rule="evenodd"
        d="M825.307 201.903C829.625 210.54 814.823 226.065 808.335 213.639C806.532 210.097 809.026 203.76 812.653 200.046C816.281 196.332 821.884 194.745 825.307 201.903Z"
        fill="#BB522F" />
    <path fill-rule="evenodd" clip-rule="evenodd"
        d="M788.502 167.959C775.46 179.111 761.694 155.111 776.032 149.162C785.716 153.135 783.924 164.471 788.502 167.959Z"
        fill="#BB522F" />
    <path fill-rule="evenodd" clip-rule="evenodd"
        d="M687.468 67.8749C683.884 74.2232 678.647 85.1493 670.269 81.1654C662.971 70.8115 673.368 54.1957 687.468 67.8749Z"
        fill="#BB522F" />
    <path fill-rule="evenodd" clip-rule="evenodd"
        d="M736.43 120.335C731.615 126.316 726.033 120.173 719.523 116.643C718.065 112.324 718.033 107.735 724.219 102.251C734.163 105.814 742.131 113.263 736.43 120.335Z"
        fill="#BB522F" />
    <path fill-rule="evenodd" clip-rule="evenodd"
        d="M648.395 41.9308C647.003 48.5922 655.543 51.8312 647.791 60.4684C646.106 59.7342 644.293 58.4387 643.472 61.1054C638.214 58.3091 639.618 57.1863 634.381 53.3859C635.537 44.7487 639.531 38.5839 648.395 41.9308Z"
        fill="#BB522F" />
    <path fill-rule="evenodd" clip-rule="evenodd"
        d="M590.926 22.7777C596.853 24.1705 598.148 28.7806 602.348 32.9912C601.269 37.6445 598.138 36.5972 596.821 40.4624C592.383 34.7618 588.367 35.3125 582.396 35.9279C583.962 30.9939 582.623 30.5296 584.07 24.1489C586.791 26.6537 589.954 22.5618 590.926 22.7777Z"
        fill="#BB522F" />
    <path fill-rule="evenodd" clip-rule="evenodd"
        d="M547.89 21.2122C546.826 23.0676 545.225 24.557 543.298 25.4841C541.371 26.4112 539.207 26.7324 537.094 26.4054C533.175 26.0491 529.752 23.4039 529.353 17.9625C531.933 14.8531 533.671 10.2538 536.532 7.54385C544.911 8.77465 547.89 14.432 547.89 21.2122Z"
        fill="#BB522F" />
    <path fill-rule="evenodd" clip-rule="evenodd"
        d="M493.239 4.7584C492.267 9.42249 492.774 16.1487 490.291 18.7075C489.373 18.9126 488.024 18.5347 487.84 19.7871C468.471 18.8371 478.609 -9.87087 493.239 4.7584Z"
        fill="#BB522F" />
    <path fill-rule="evenodd" clip-rule="evenodd"
        d="M425.177 0.00796822C434.732 0.321067 440.8 20.7481 426.818 20.5213C419.013 20.4566 409.49 -0.467078 425.177 0.00796822Z"
        fill="#BB522F" />
    <path fill-rule="evenodd" clip-rule="evenodd"
        d="M377.435 15.026C378.957 23.4797 372.76 27.2585 366.466 26.9994C360.171 26.7402 353.715 23.6093 354.806 15.663C362.946 8.6453 372.123 17.1853 377.435 15.026Z"
        fill="#BB522F" />
    <path fill-rule="evenodd" clip-rule="evenodd"
        d="M240.039 51.7663C243.839 58.2442 250.511 67.7883 242.975 73.273C230.689 75.022 221.199 57.2294 240.039 51.7663Z"
        fill="#BB522F" />
    <path fill-rule="evenodd" clip-rule="evenodd"
        d="M310.087 35.7551C312.807 42.7944 304.937 45.2128 298.567 48.9376C294.032 47.858 289.93 45.418 288.332 37.3962C296.742 31.4689 306.718 26.9991 310.087 35.7551Z"
        fill="#BB522F" />
    <path fill-rule="evenodd" clip-rule="evenodd"
        d="M197.932 72.5604C203.093 77.1813 210.359 71.7615 213.976 82.6983C212.443 83.7024 210.348 84.5337 212.27 86.5959C207.001 89.4354 206.872 87.8591 201.074 90.6662C194.208 85.4515 190.807 78.8224 197.932 72.5604Z"
        fill="#BB522F" />
    <path fill-rule="evenodd" clip-rule="evenodd"
        d="M153.051 113.307C157.067 108.675 161.688 109.787 167.227 108.081C170.714 111.32 168.307 113.62 171.017 116.718C164.031 117.906 162.595 121.771 160.285 127.428C156.798 123.606 155.783 124.578 150.978 120.141C154.39 118.91 152.414 114.062 153.051 113.307Z"
        fill="#BB522F" />
    <path fill-rule="evenodd" clip-rule="evenodd"
        d="M130.131 149.723C134.838 158.296 127.82 168.876 117.909 164.028C116.602 160.314 113.525 156.557 112.727 152.789C118.33 146.473 124.16 146.257 130.131 149.723Z"
        fill="#BB522F" />
    <path fill-rule="evenodd" clip-rule="evenodd"
        d="M88.6607 188.882C92.1696 192.045 98.3128 195.025 99.1549 198.361C98.831 199.225 97.7406 200.154 98.7231 200.931C92.8066 208.542 85.6593 207.171 81.7618 202.702C77.8642 198.232 78.3501 191.106 88.6607 188.882Z"
        fill="#BB522F" />
    <path fill-rule="evenodd" clip-rule="evenodd"
        d="M50.0957 245.175C54.9541 236.948 75.5431 241.861 68.7089 254.017C64.8761 260.808 42.1711 258.681 50.0957 245.175Z"
        fill="#BB522F" />
    <path fill-rule="evenodd" clip-rule="evenodd"
        d="M39.3855 294.094C55.5803 299.827 40.5732 323.353 28.4703 313.992C27.4338 303.736 38.4355 299.73 39.3855 294.094Z"
        fill="#BB522F" />
    <path fill-rule="evenodd" clip-rule="evenodd"
        d="M2.95808 431.501C10.2565 431.426 22.3918 430.422 22.8561 439.718C17.1987 451.216 -2.3646 450.525 2.95808 431.501Z"
        fill="#BB522F" />
    <path fill-rule="evenodd" clip-rule="evenodd"
        d="M23.4611 362.771C30.9215 363.926 29.2588 371.98 29.4531 379.387C26.3221 382.787 22.2519 385.109 14.4568 382.518C13.3123 372.218 14.2408 361.324 23.4611 362.771Z"
        fill="#BB522F" />
    <path fill-rule="evenodd" clip-rule="evenodd"
        d="M64.3146 489.91C70.8465 487.632 69.5078 478.412 80.8765 480.733C81.0276 482.601 80.7685 484.879 83.5 484.21C83.5756 490.299 81.8698 489.608 81.114 496.259C73.3297 499.778 65.5238 499.552 64.3146 489.91Z"
        fill="#BB522F" />
    <path fill-rule="evenodd" clip-rule="evenodd"
        d="M78.6199 550.522C76.3527 544.649 79.4513 541.043 80.5309 535.191C85.0007 533.615 85.9292 536.886 89.9239 535.958C87.7646 542.803 90.5177 545.966 94.4692 550.76C89.4704 552.077 89.8483 553.459 83.6727 555.683C84.2125 551.991 78.9978 551.472 78.6199 550.522Z"
        fill="#BB522F" />
    <path fill-rule="evenodd" clip-rule="evenodd"
        d="M100.883 588.558C110.772 588.224 116.451 599.7 108.354 606.297C104.348 605.822 99.3819 607.02 95.7434 605.962C92.6556 597.854 95.1065 592.38 100.883 588.558Z"
        fill="#BB522F" />
    <path fill-rule="evenodd" clip-rule="evenodd"
        d="M118.556 644.257C122.94 642.411 128.176 638.114 131.685 638.751C132.376 639.41 132.84 640.759 133.963 640.198C144.263 657.095 115.026 665.181 118.556 644.257Z"
        fill="#BB522F" />
    <path fill-rule="evenodd" clip-rule="evenodd"
        d="M155.103 704.113C149.542 695.962 162.595 678.687 170.563 690.51C175.508 696.685 164.927 716.832 155.103 704.113Z"
        fill="#BB522F" />
    <path fill-rule="evenodd" clip-rule="evenodd"
        d="M197.155 733.631C208.502 720.848 225.118 743.844 212.076 751.413C201.679 748.8 202.186 736.622 197.155 733.631Z"
        fill="#BB522F" />
    <path fill-rule="evenodd" clip-rule="evenodd"
        d="M316.338 817.304C318.562 810.362 321.466 798.55 330.622 800.926C340.025 809.746 333.375 828.1 316.338 817.304Z"
        fill="#BB522F" />
    <path fill-rule="evenodd" clip-rule="evenodd"
        d="M256.892 773.999C260.574 767.402 267.516 772.131 274.491 774.852C276.531 779.268 277.568 783.576 272.407 790.129C262.183 787.516 252.379 782.086 256.892 773.999Z"
        fill="#BB522F" />
    <path fill-rule="evenodd" clip-rule="evenodd"
        d="M361.252 834.794C361.079 827.895 351.88 826.427 357.581 816.3C359.416 816.699 361.511 817.628 361.705 814.831C367.546 816.58 366.412 817.962 372.501 820.715C373.354 829.515 370.85 836.392 361.252 834.794Z"
        fill="#BB522F" />
    <path fill-rule="evenodd" clip-rule="evenodd"
        d="M423.299 839.89C417.026 840.203 414.521 836.5 409.317 833.272C409.199 828.456 412.556 828.953 412.913 824.775C418.764 828.878 422.629 827.182 428.406 824.829C428.125 830 429.561 830.044 429.777 836.576C426.462 834.978 424.303 839.814 423.299 839.89Z"
        fill="#BB522F" />
    <path fill-rule="evenodd" clip-rule="evenodd"
        d="M466.344 830.389C469.098 820.985 481.729 818.438 485.541 828.845C483.846 832.397 483.381 837.234 481.287 840.462C472.628 841.056 468.191 837.04 466.344 830.389Z"
        fill="#BB522F" />
    <path fill-rule="evenodd" clip-rule="evenodd"
        d="M524.829 831.048C524.441 826.351 521.968 819.96 523.696 817.012C524.538 816.591 525.963 816.505 525.78 815.274C544.911 810.2 543.615 840.959 524.829 831.048Z"
        fill="#BB522F" />
    <path fill-rule="evenodd" clip-rule="evenodd"
        d="M592.977 814.572C583.454 817.218 571.136 799.662 584.815 795.625C588.691 794.458 594.532 798.237 597.511 802.47C600.491 806.702 600.815 812.499 592.977 814.572Z"
        fill="#BB522F" />
    <path fill-rule="evenodd" clip-rule="evenodd"
        d="M634.177 783.986C625.475 769.184 652.174 759.964 655.543 774.992C649.68 783.835 638.56 780.099 634.177 783.986Z"
        fill="#BB522F" />
    <path fill-rule="evenodd" clip-rule="evenodd"
        d="M750.487 696.383C744.581 692.129 734.292 685.727 739.194 677.618C750.357 671.184 765.775 683.233 750.487 696.383Z"
        fill="#BB522F" />
    <path fill-rule="evenodd" clip-rule="evenodd"
        d="M690.977 739.569C685.827 734.041 692.326 728.772 696.926 722.78C701.601 722.025 706.329 722.683 710.864 729.507C705.153 738.317 697.357 746.382 690.977 739.569Z"
        fill="#BB522F" />
    <path fill-rule="evenodd" clip-rule="evenodd"
        d="M780.923 658.951C774.337 656.987 770.256 665.429 762.342 656.792C763.26 655.151 764.749 653.424 762.158 652.376C765.516 647.302 766.477 648.803 770.871 643.826C779.508 645.639 785.241 650.206 780.923 658.951Z"
        fill="#BB522F" />
    <path fill-rule="evenodd" clip-rule="evenodd"
        d="M805.258 601.644C803.93 607.841 798.931 608.769 794.267 612.732C789.678 611.361 791.028 608.251 787.303 606.664C793.684 602.659 792.939 598.329 792.474 592.1C797.301 593.978 797.765 592.607 804.027 594.421C801.522 597.131 805.484 600.64 805.258 601.644Z"
        fill="#BB522F" />
    <path fill-rule="evenodd" clip-rule="evenodd"
        d="M809.436 557.724C801.306 552.196 802.624 539.369 813.679 538.927C816.551 541.637 821.032 543.537 823.472 546.56C821.42 554.949 816.314 558.015 809.436 557.724Z"
        fill="#BB522F" />
    <path fill-rule="evenodd" clip-rule="evenodd"
        d="M827.812 502.229C823.223 501.15 816.389 501.549 814.068 498.99C813.96 498.062 814.489 496.701 813.247 496.496C813.949 486.715 821.204 484.35 826.71 486.358C831.936 488.302 836.179 495.136 827.812 502.229Z"
        fill="#BB522F" />
    <path fill-rule="evenodd" clip-rule="evenodd"
        d="M833.124 432.365C832.821 442.233 812.405 448.56 812.61 434.254C812.697 426.308 833.577 416.224 833.124 432.365Z"
        fill="#BB522F" />
    <path fill-rule="evenodd" clip-rule="evenodd"
        d="M817.22 383.651C800.669 387.268 799.439 359.219 814.942 360.644C821.615 368.925 814.975 378.264 817.22 383.651Z"
        fill="#BB522F" />
    <path fill-rule="evenodd" clip-rule="evenodd"
        d="M769.791 245.909C763.723 250.347 754.967 257.85 748.511 250.854C745.445 238.611 762.007 227.318 769.791 245.909Z"
        fill="#BB522F" />
    <path fill-rule="evenodd" clip-rule="evenodd"
        d="M792.54 315.838C785.91 318.926 782.682 311.196 778.245 305.042C778.882 300.421 780.901 296.156 788.826 293.932C795.606 302.051 801.371 311.746 792.54 315.838Z"
        fill="#BB522F" />
    <path fill-rule="evenodd" clip-rule="evenodd"
        d="M743.513 205.444C739.658 211.069 746.536 217.417 735.879 222.33C734.573 220.98 733.342 219.091 731.561 221.25C727.642 216.597 729.402 216.111 725.882 210.54C730.244 202.982 736.322 198.804 743.513 205.444Z"
        fill="#BB522F" />
    <path fill-rule="evenodd" clip-rule="evenodd"
        d="M696.451 164.644C701.547 168.282 701.072 173.109 703.479 178.68C700.769 182.609 698.178 180.396 695.511 183.495C693.417 176.466 689.498 175.333 683.57 173.681C686.809 169.675 685.73 168.833 689.325 163.446C691.236 166.533 695.587 164.115 696.451 164.644Z"
        fill="#BB522F" />
    <path fill-rule="evenodd" clip-rule="evenodd"
        d="M656.083 146.927C648.266 152.994 636.325 148.006 639.316 137.415C642.814 135.483 646.009 131.801 649.669 130.376C657.151 134.802 658.479 140.514 656.083 146.927Z"
        fill="#BB522F" />
    <path fill-rule="evenodd" clip-rule="evenodd"
        d="M608.837 112.572C606.386 116.61 604.648 123.218 601.485 124.664C600.556 124.492 599.412 123.585 598.829 124.664C590.073 120.205 589.879 113.058 593.56 108.308C597.242 103.557 604.605 102.726 608.837 112.572Z"
        fill="#BB522F" />
    <path fill-rule="evenodd" clip-rule="evenodd"
        d="M544.144 85.7861C553.472 89.0251 553.159 110.305 539.62 105.9C532.031 103.438 528.824 80.5498 544.144 85.7861Z"
        fill="#BB522F" />
    <path fill-rule="evenodd" clip-rule="evenodd"
        d="M492.817 86.0994C491.252 102.294 464.099 95.5895 470.253 81.0898C480.186 77.2894 487.063 85.959 492.817 86.0994Z"
        fill="#BB522F" />
    <path fill-rule="evenodd" clip-rule="evenodd"
        d="M347.226 88.6906C349.505 95.622 354.125 106.894 345.229 110.132C338.751 109.053 334.433 104.659 333.871 99.336C333.735 97.9963 333.903 96.6431 334.363 95.3774C334.823 94.1117 335.562 92.9663 336.527 92.0267C338.697 90.1805 342.249 88.8633 347.226 88.6906Z"
        fill="#BB522F" />
    <path fill-rule="evenodd" clip-rule="evenodd"
        d="M420.718 88.7444C421.636 96.3775 413.161 95.8593 406.013 98.634C401.824 96.669 398.456 93.4733 398.758 85.2355C403.638 83.195 408.82 81.3272 412.955 81.6619C417.091 81.9966 420.146 84.1019 420.718 88.7444Z"
        fill="#BB522F" />
    <path fill-rule="evenodd" clip-rule="evenodd"
        d="M300.445 100.642C304.645 106.17 313.045 102.164 314.351 113.652C312.613 114.354 310.356 114.732 311.846 117.172C306.016 118.985 306.135 117.28 299.819 119.05C294.032 112.669 291.916 105.414 300.445 100.642Z"
        fill="#BB522F" />
    <path fill-rule="evenodd" clip-rule="evenodd"
        d="M247.348 133.28C252.293 129.415 256.709 131.283 262.679 130.602C265.573 134.37 262.679 136.227 264.839 139.715C257.573 139.661 255.381 143.202 252.002 148.352C249.184 144.033 247.974 144.778 243.947 139.618C247.661 139.013 246.549 133.885 247.348 133.28Z"
        fill="#BB522F" />
    <path fill-rule="evenodd" clip-rule="evenodd"
        d="M217.992 166.123C220.983 174.944 212.788 185.039 203.719 179.079C202.92 175.128 200.394 170.928 200.124 166.955C206.343 160.876 212.594 161.837 217.992 166.123Z"
        fill="#BB522F" />
    <path fill-rule="evenodd" clip-rule="evenodd"
        d="M170.725 200.402C173.824 203.997 179.546 207.668 179.978 211.199C179.557 212.041 178.369 212.872 179.255 213.779C165.953 228.397 149.435 203.22 170.725 200.402Z"
        fill="#BB522F" />
    <path fill-rule="evenodd" clip-rule="evenodd"
        d="M125.131 253.607C130.918 245.639 150.957 252.528 142.838 264.145C138.303 270.644 115.695 266.682 125.131 253.607Z"
        fill="#BB522F" />
    <path fill-rule="evenodd" clip-rule="evenodd"
        d="M109.703 302.548C117.671 306.046 116.883 313.269 113.547 318.656C110.211 324.044 103.539 327.628 97.7085 322.338C97.2874 317.026 99.7274 313.323 102.588 310.408C105.665 307.568 108.915 305.387 109.703 302.548Z"
        fill="#BB522F" />
    <path fill-rule="evenodd" clip-rule="evenodd"
        d="M67.2512 441.769C74.5389 441.769 86.685 440.84 87.1276 450.276C81.4594 461.991 61.8962 461.354 67.2512 441.769Z"
        fill="#BB522F" />
    <path fill-rule="evenodd" clip-rule="evenodd"
        d="M89.8376 371.861C97.4491 373.34 94.3505 381.254 94.5665 388.844C91.4355 392.245 87.376 394.523 79.6241 391.662C78.091 380.963 80.8117 370.091 89.8376 371.861Z"
        fill="#BB522F" />
    <path fill-rule="evenodd" clip-rule="evenodd"
        d="M128.684 491.249C135.161 488.755 133.823 479.2 145.181 481.468C145.332 483.389 145.073 485.786 147.804 485.009C147.804 491.314 146.487 490.645 146.239 497.436C138.422 501.29 131.026 501.204 128.684 491.249Z"
        fill="#BB522F" />
    <path fill-rule="evenodd" clip-rule="evenodd"
        d="M145.872 553.869C143.356 547.855 146.498 543.882 147.459 537.674C151.864 535.839 152.857 539.229 156.765 538.074C154.757 545.297 157.197 548.6 161.894 553.189C156.992 554.83 157.575 556.223 151.572 558.857C151.691 555.003 146.358 554.776 145.872 553.869Z"
        fill="#BB522F" />
    <path fill-rule="evenodd" clip-rule="evenodd"
        d="M171.837 591.452C181.695 590.372 188.702 601.449 181.381 608.931C177.311 608.813 172.539 610.443 168.642 609.73C164.615 601.633 166.461 595.814 171.837 591.452Z"
        fill="#BB522F" />
    <path fill-rule="evenodd" clip-rule="evenodd"
        d="M196.734 646.579C200.837 644.214 205.49 639.237 209.042 639.507C209.798 640.112 210.424 641.472 211.46 640.77C217.431 648.911 213.803 655.81 208.48 658.045C203.158 660.279 196.183 657.386 196.734 646.579Z"
        fill="#BB522F" />
    <path fill-rule="evenodd" clip-rule="evenodd"
        d="M243.634 702.299C236.541 694.742 246.322 675.675 256.59 686.202C259.386 689.311 259.311 695.843 256.903 700.626C254.495 705.409 249.453 708.378 243.634 702.299Z"
        fill="#BB522F" />
    <path fill-rule="evenodd" clip-rule="evenodd"
        d="M291.959 724.594C296.278 717.037 303.63 718.581 308.748 722.651C313.984 726.462 317.061 733.663 311.177 738.932C308.861 738.839 306.596 738.222 304.554 737.126C302.511 736.03 300.745 734.484 299.387 732.605C296.742 729.194 294.799 725.706 291.959 724.594Z"
        fill="#BB522F" />
    <path fill-rule="evenodd" clip-rule="evenodd"
        d="M433.221 776.601C433.221 769.313 432.443 757.167 442.16 756.746C454.187 762.425 453.615 781.999 433.221 776.601Z"
        fill="#BB522F" />
    <path fill-rule="evenodd" clip-rule="evenodd"
        d="M361.489 751.38C363.357 744.071 371.605 746.63 379.303 747.267C382.596 750.786 384.755 755.127 381.527 762.652C370.644 762.619 359.157 760.417 361.489 751.38Z"
        fill="#BB522F" />
    <path fill-rule="evenodd" clip-rule="evenodd"
        d="M483.37 779.516C480.887 773.038 471.332 774.366 473.589 763.019C475.521 762.857 477.907 763.116 477.141 760.395C483.446 760.395 482.777 761.702 489.568 761.95C493.4 769.734 493.314 777.13 483.37 779.516Z"
        fill="#BB522F" />
    <path fill-rule="evenodd" clip-rule="evenodd"
        d="M545.926 762.242C539.912 764.757 535.939 761.616 529.731 760.655C527.895 756.25 531.275 755.256 530.13 751.348C537.353 753.356 540.657 750.916 545.245 746.22C546.887 751.132 548.269 750.538 550.903 756.552C547.113 756.455 546.876 761.799 545.926 762.242Z"
        fill="#BB522F" />
    <path fill-rule="evenodd" clip-rule="evenodd"
        d="M583.562 736.33C582.482 726.462 593.56 719.455 601.031 726.775C600.923 730.856 602.542 735.617 601.841 739.515C593.743 743.531 587.924 741.728 583.562 736.33Z"
        fill="#BB522F" />
    <path fill-rule="evenodd" clip-rule="evenodd"
        d="M638.689 711.412C636.325 707.309 631.337 702.667 631.617 699.115C632.222 698.348 633.571 697.733 632.87 696.685C641.021 690.715 647.92 694.342 650.198 699.676C652.476 705.009 649.485 711.962 638.689 711.412Z"
        fill="#BB522F" />
    <path fill-rule="evenodd" clip-rule="evenodd"
        d="M694.399 664.512C686.896 671.605 667.786 661.823 678.313 651.556C681.422 648.749 687.954 648.835 692.737 651.243C697.52 653.65 700.489 658.692 694.399 664.512Z"
        fill="#BB522F" />
    <path fill-rule="evenodd" clip-rule="evenodd"
        d="M716.694 616.197C709.136 611.879 710.68 604.515 714.75 599.398C718.562 594.172 725.763 591.085 731.032 596.969C730.939 599.285 730.322 601.55 729.228 603.594C728.134 605.638 726.592 607.407 724.716 608.769C721.304 611.404 717.817 613.347 716.694 616.197Z"
        fill="#BB522F" />
    <path fill-rule="evenodd" clip-rule="evenodd"
        d="M768.712 474.936C761.424 474.936 749.278 475.702 748.846 465.986C754.536 453.958 774.11 454.541 768.712 474.936Z"
        fill="#BB522F" />
    <path fill-rule="evenodd" clip-rule="evenodd"
        d="M743.491 546.657C736.182 544.789 738.741 536.551 739.378 528.843C742.886 525.55 747.237 523.39 754.763 526.629C754.73 537.512 752.517 548.989 743.491 546.657Z"
        fill="#BB522F" />
    <path fill-rule="evenodd" clip-rule="evenodd"
        d="M771.573 424.775C765.095 427.258 766.433 436.813 755.086 434.557C754.924 432.624 755.183 430.238 752.452 431.005C752.452 424.7 753.769 425.38 754.017 418.578C761.845 414.756 769.23 414.831 771.573 424.775Z"
        fill="#BB522F" />
    <path fill-rule="evenodd" clip-rule="evenodd"
        d="M754.385 362.22C756.9 368.234 753.759 372.207 752.798 378.415C748.393 380.25 747.399 376.86 743.491 378.005C745.499 370.793 743.059 367.489 738.363 362.89C743.264 361.248 742.681 359.867 748.695 357.232C748.565 361.033 753.899 361.27 754.385 362.22Z"
        fill="#BB522F" />
    <path fill-rule="evenodd" clip-rule="evenodd"
        d="M728.419 324.584C718.562 325.663 711.555 314.597 718.875 307.115C722.945 307.223 727.717 305.603 731.615 306.316C735.642 314.402 733.796 320.233 728.419 324.584Z"
        fill="#BB522F" />
    <path fill-rule="evenodd" clip-rule="evenodd"
        d="M703.522 269.456C699.419 271.821 694.766 276.809 691.225 276.528C690.458 275.924 689.832 274.574 688.796 275.276C682.825 267.124 686.453 260.225 691.775 257.947C697.098 255.669 704.073 258.66 703.522 269.456Z"
        fill="#BB522F" />
    <path fill-rule="evenodd" clip-rule="evenodd"
        d="M656.622 213.779C663.716 221.283 653.934 240.392 643.666 229.877C640.87 226.756 640.946 220.235 643.353 215.442C645.685 210.778 650.803 207.668 656.622 213.779Z"
        fill="#BB522F" />
    <path fill-rule="evenodd" clip-rule="evenodd"
        d="M608.297 191.452C603.978 199.009 596.626 197.465 591.508 193.395C586.283 189.584 583.195 182.383 589.079 177.114C591.394 177.207 593.658 177.823 595.7 178.917C597.742 180.011 599.509 181.554 600.869 183.43C603.525 186.842 605.457 190.34 608.297 191.452Z"
        fill="#BB522F" />
    <path fill-rule="evenodd" clip-rule="evenodd"
        d="M467.035 139.434C467.035 146.722 467.813 158.868 458.096 159.3C446.069 153.61 446.641 134.047 467.035 139.434Z"
        fill="#BB522F" />
    <path fill-rule="evenodd" clip-rule="evenodd"
        d="M538.746 164.655C536.878 171.964 528.629 169.416 520.931 168.779C517.693 165.259 515.533 160.908 518.707 153.394C529.612 153.416 541.099 155.618 538.746 164.655Z"
        fill="#BB522F" />
    <path fill-rule="evenodd" clip-rule="evenodd"
        d="M416.886 136.573C419.369 143.051 428.924 141.723 426.667 153.07C424.735 153.232 422.349 152.973 423.115 155.694C416.81 155.694 417.479 154.387 410.688 154.139C406.867 146.311 406.942 138.916 416.886 136.573Z"
        fill="#BB522F" />
    <path fill-rule="evenodd" clip-rule="evenodd"
        d="M354.331 153.761C360.344 151.256 364.317 154.387 370.525 155.348C372.35 159.764 368.971 160.746 370.115 164.655C362.892 162.657 359.599 165.097 355 169.794C353.359 164.882 351.977 165.475 349.343 159.462C353.143 159.58 353.38 154.247 354.331 153.761Z"
        fill="#BB522F" />
    <path fill-rule="evenodd" clip-rule="evenodd"
        d="M316.694 179.727C317.774 189.584 306.697 196.591 299.226 189.271C299.334 185.201 297.714 180.429 298.416 176.531C306.513 172.515 312.333 174.35 316.694 179.727Z"
        fill="#BB522F" />
    <path fill-rule="evenodd" clip-rule="evenodd"
        d="M261.567 204.624C263.931 208.737 268.909 213.38 268.639 216.932C268.034 217.698 266.685 218.314 267.386 219.361C259.235 225.331 252.336 221.693 250.112 216.37C247.888 211.048 250.77 204.062 261.567 204.624Z"
        fill="#BB522F" />
    <path fill-rule="evenodd" clip-rule="evenodd"
        d="M205.857 251.567C213.415 244.473 232.47 254.255 221.955 264.523C218.834 267.319 212.313 267.243 207.52 264.836C202.726 262.428 199.735 257.343 205.857 251.567Z"
        fill="#BB522F" />
    <path fill-rule="evenodd" clip-rule="evenodd"
        d="M183.541 299.849C191.098 304.167 189.554 311.52 185.473 316.637C181.673 321.873 174.472 324.95 169.192 319.066C169.287 316.751 169.906 314.487 171.001 312.445C172.097 310.403 173.642 308.636 175.519 307.277C178.952 304.631 182.461 302.688 183.541 299.849Z"
        fill="#BB522F" />
    <path fill-rule="evenodd" clip-rule="evenodd"
        d="M131.545 441.11C138.832 441.11 150.979 440.344 151.41 450.061C145.753 462.099 126.157 461.516 131.545 441.11Z"
        fill="#BB522F" />
    <path fill-rule="evenodd" clip-rule="evenodd"
        d="M156.765 369.378C164.074 371.246 161.516 379.495 160.879 387.193C157.37 390.485 153.019 392.645 145.494 389.417C145.526 378.534 147.728 367.089 156.765 369.378Z"
        fill="#BB522F" />
    <path fill-rule="evenodd" clip-rule="evenodd"
        d="M215.077 495.136C221.361 492.502 219.212 483.573 230.786 485.365C231.121 487.146 231.078 489.349 233.744 488.604C234.403 494.434 232.665 493.905 232.492 500.318C224.697 504.291 217.377 504.648 215.077 495.136Z"
        fill="#BB522F" />
    <path fill-rule="evenodd" clip-rule="evenodd"
        d="M235.472 553.524C232.384 548.125 235.234 543.958 235.677 538.063C239.92 535.904 241.151 538.97 244.951 537.48C243.461 544.465 246.29 547.272 251.213 550.986C246.506 553.146 247.132 554.377 241.496 557.626C241.302 553.988 236.022 554.387 235.472 553.524Z"
        fill="#BB522F" />
    <path fill-rule="evenodd" clip-rule="evenodd"
        d="M264.514 585.697C274.048 582.998 282.771 591.452 276.196 600.359C272.331 600.963 268.067 603.284 264.18 603.306C258.889 596.461 259.807 590.685 264.514 585.697Z"
        fill="#BB522F" />
    <path fill-rule="evenodd" clip-rule="evenodd"
        d="M296.818 632.824C300.305 629.585 303.878 623.809 307.247 623.269C308.068 623.668 308.856 624.813 309.719 623.906C316.975 629.812 315.02 637.078 310.356 640.651C305.897 644.063 297.984 643.588 296.818 632.824Z"
        fill="#BB522F" />
    <path fill-rule="evenodd" clip-rule="evenodd"
        d="M353.046 673.117C344.409 668.118 349.062 647.324 360.862 654.028C367.459 657.516 367.448 680.188 353.046 673.117Z"
        fill="#BB522F" />
    <path fill-rule="evenodd" clip-rule="evenodd"
        d="M403.282 678.558C406.272 661.737 431.202 671.421 425.015 685.036C415.039 688.653 408.95 678.223 403.282 678.558Z"
        fill="#BB522F" />
    <path fill-rule="evenodd" clip-rule="evenodd"
        d="M544.619 668.55C541.11 662.169 534.654 651.837 542.319 647.14C548.463 646.784 553.764 650.466 555.362 655.421C556.959 660.377 554.444 666.477 544.619 668.55Z"
        fill="#BB522F" />
    <path fill-rule="evenodd" clip-rule="evenodd"
        d="M473.189 676.744C471.915 669.294 479.905 668.528 486.631 666.174C490.766 667.761 494.372 670.633 494.826 678.871C485.735 684.096 474.69 685.705 473.189 676.744Z"
        fill="#BB522F" />
    <path fill-rule="evenodd" clip-rule="evenodd"
        d="M587.158 646.427C581.673 642.238 574.882 648.403 570.66 637.531C572.075 636.451 574.051 635.372 572.021 633.461C576.825 630.092 577.333 631.971 582.958 628.883C590.127 633.374 594.521 640.036 587.158 646.427Z"
        fill="#BB522F" />
    <path fill-rule="evenodd" clip-rule="evenodd"
        d="M627.277 599.43C624.038 604.742 619.655 604.829 614.019 607.161C610.014 604.559 612.162 602.032 608.966 599.484C615.606 597.163 616.243 593.006 617.366 587.155C621.577 590.167 622.387 589.033 628.044 592.326C624.891 594.216 627.817 598.545 627.277 599.43Z"
        fill="#BB522F" />
    <path fill-rule="evenodd" clip-rule="evenodd"
        d="M640.676 558.263C639.1 556.828 637.979 554.964 637.45 552.9C636.92 550.836 637.006 548.662 637.696 546.646C639.024 543.062 642.112 540.244 647.596 540.87C650.155 543.958 654.344 546.517 656.406 549.907C653.243 557.928 647.283 559.807 640.676 558.263Z"
        fill="#BB522F" />
    <path fill-rule="evenodd" clip-rule="evenodd"
        d="M665.648 506.818C661.103 505.404 654.355 505.231 652.056 502.564C651.937 501.646 652.455 500.405 651.224 500.081C652.617 490.828 660.293 488.939 665.562 491.152C670.831 493.365 673.703 500.297 665.648 506.818Z"
        fill="#BB522F" />
    <path fill-rule="evenodd" clip-rule="evenodd"
        d="M672.255 437.925C672.32 447.836 651.807 454.271 651.85 440.689C651.213 433.315 671.122 421.946 672.255 437.925Z"
        fill="#BB522F" />
    <path fill-rule="evenodd" clip-rule="evenodd"
        d="M651.785 391.749C643.699 394.631 638.829 389.417 637.847 383.36C636.605 377.454 638.657 370.318 646.484 369.691C655.11 376.342 648.719 386.977 651.785 391.749Z"
        fill="#BB522F" />
    <path fill-rule="evenodd" clip-rule="evenodd"
        d="M572.668 274.142C568.857 280.415 563.232 290.974 555.038 287.098C548.063 277.003 558.179 260.204 572.668 274.142Z"
        fill="#BB522F" />
    <path fill-rule="evenodd" clip-rule="evenodd"
        d="M615.336 332.098C609.517 336.945 605.263 330.1 599.282 325.922C598.699 321.452 599.455 316.81 606.311 312.329C610.629 315.136 614.883 318.44 617.031 321.884C618.942 325.523 618.921 329.086 615.336 332.098Z"
        fill="#BB522F" />
    <path fill-rule="evenodd" clip-rule="evenodd"
        d="M532.171 248.425C531.426 254.903 539.912 258.261 532.679 267.189C531.016 266.466 529.202 265.17 528.522 267.902C523.199 265.473 524.462 264.382 518.967 261.089C519.312 252.387 522.713 245.845 532.171 248.425Z"
        fill="#BB522F" />
    <path fill-rule="evenodd" clip-rule="evenodd"
        d="M471.332 237.143C477.54 237.337 479.754 241.623 484.655 244.905C484.418 249.645 481.125 249.224 480.52 253.294C475.187 248.652 471.321 249.85 465.696 251.826C466.182 246.665 464.79 246.633 464.811 240.122C468.061 241.612 470.307 237.164 471.332 237.143Z"
        fill="#BB522F" />
    <path fill-rule="evenodd" clip-rule="evenodd"
        d="M428.989 246.287C426.495 255.281 414.856 259.027 410.473 249.04C411.876 245.316 412.006 240.403 413.927 236.991C422.424 235.372 427.024 239.691 428.989 246.287Z"
        fill="#BB522F" />
    <path fill-rule="evenodd" clip-rule="evenodd"
        d="M371.994 250.487C373.073 255.119 376.258 261.078 375.082 264.361C374.337 264.9 372.922 265.062 373.322 266.271C364.544 269.51 359.06 263.745 358.347 258.088C357.635 252.43 362.288 246.633 371.994 250.487Z"
        fill="#BB522F" />
    <path fill-rule="evenodd" clip-rule="evenodd"
        d="M309.072 279.238C317.471 273.969 333.062 288.135 321.715 295.519C315.485 299.546 295.501 287.811 309.072 279.238Z"
        fill="#BB522F" />
    <path fill-rule="evenodd" clip-rule="evenodd"
        d="M279.241 319.93C291.786 330.532 271.748 347.915 262.722 335.477C264.914 325.242 276.067 324.497 279.241 319.93Z"
        fill="#BB522F" />
    <path fill-rule="evenodd" clip-rule="evenodd"
        d="M217.193 447.253C224.47 447.405 236.627 446.983 237.07 455.988C231.423 467.097 211.838 466.773 217.193 447.253Z"
        fill="#BB522F" />
    <path fill-rule="evenodd" clip-rule="evenodd"
        d="M245.621 381.233C252.692 383.845 249.551 391.209 248.352 398.259C244.498 400.904 240.384 402.664 232.978 398.939C233.593 388.682 236.929 377.994 245.621 381.233Z"
        fill="#BB522F" />
    <path
        d="M238.169 147.973C238.159 147.228 237.564 146.76 236.844 147C235.343 147.503 234.278 148.339 233.062 149.332C230.668 151.29 227.637 152.341 224.796 153.478C219.463 155.578 213.93 157.132 208.283 158.115C196.348 160.269 184.054 158.29 173.16 153.06C162.121 147.758 153.835 138.736 148.062 128.091C145.306 123.058 143.25 117.673 141.95 112.083C141.317 109.323 140.558 106.236 140.112 103.172C140.18 103.11 140.231 103.033 140.263 102.947C140.294 102.86 140.304 102.768 140.293 102.677C138.521 88.6968 145.989 73.9508 154.498 63.3823C159.076 57.683 164.794 53.0489 170.903 49.0951C174.321 46.8887 178.172 45.1257 182.172 44.2859C184.581 43.7781 186.92 43.7348 189.156 42.6142C191.314 41.5377 190.011 39.7844 188.438 39.1632C183.424 37.1741 177.095 37.0325 171.797 36.9037C162.337 36.6854 150.85 37.4867 142.065 42.0376C137.62 43.7864 133.26 46.181 129.529 48.4536C124.038 51.801 119.032 55.7877 114.759 60.5181C110.717 63.4377 107.553 68.8822 105.101 72.5855C100.62 79.3716 97.726 86.9765 95.6733 94.8077C93.766 102.088 92.8622 109.325 93.1059 116.843C93.2805 122.038 93.716 127.898 95.6867 132.93C101.532 154.773 117.59 174.121 137.954 183.7C149.79 189.259 161.96 191.049 174.913 190.46C180.702 190.195 186.272 189.558 191.842 187.91C193.522 187.412 195.348 186.814 197.162 186.107C197.274 186.114 197.387 186.097 197.493 186.059C206.776 182.843 215.105 176.777 222.069 169.941C225.953 166.132 229.643 162.169 232.832 157.749C234.692 155.175 238.207 151.344 238.169 147.973Z"
        fill="#BB522F" />
    <path
        d="M522.879 213.744C522.961 213.073 523.051 212.434 523.155 211.829C522.275 216.968 533.452 237.927 537.495 241.743C543.799 247.692 556.728 245.384 566.684 245.255C559.492 251.169 544.765 257.251 539.752 263.99C537.15 267.488 532.707 289.557 534.495 292.867L521.4 268.642C519.511 265.15 516.794 261.192 511.954 261.108C506.523 261.018 492.774 259.656 488.073 261.277C495.961 258.556 512.783 253 517.049 246.956C522.45 239.311 521.708 223.311 522.879 213.744Z"
        fill="#BB522F" />
    <path
        d="M406.879 636.744C406.961 636.073 407.051 635.434 407.155 634.829C406.275 639.968 417.452 660.927 421.495 664.743C427.799 670.692 440.728 668.384 450.684 668.255C443.492 674.169 428.765 680.251 423.752 686.99C421.15 690.488 416.707 712.557 418.495 715.867L405.4 691.642C403.511 688.15 400.794 684.192 395.954 684.108C390.523 684.018 376.774 682.656 372.073 684.277C379.961 681.556 396.783 676 401.049 669.956C406.45 662.311 405.708 646.311 406.879 636.744Z"
        fill="#BB522F" />
    <path
        d="M672.879 33.7445C672.961 33.0727 673.051 32.4338 673.155 31.8291C672.275 36.9678 683.452 57.9272 687.495 61.7429C693.799 67.6917 706.728 65.3842 716.684 65.2552C709.492 71.1687 694.765 77.2515 689.752 83.9902C687.15 87.4879 682.707 109.557 684.495 112.867L671.4 88.6421C669.511 85.1502 666.794 81.192 661.954 81.1083C656.523 81.018 642.774 79.6559 638.073 81.2769C645.961 78.5562 662.783 72.9999 667.049 66.9557C672.45 59.3106 671.708 43.3109 672.879 33.7445Z"
        fill="#BB522F" />
    <path
        d="M141.879 505.744C141.961 505.073 142.051 504.434 142.155 503.829C141.274 508.968 152.452 529.927 156.495 533.743C162.799 539.692 175.728 537.384 185.684 537.255C178.492 543.169 163.765 549.251 158.752 555.99C156.15 559.488 151.707 581.557 153.495 584.867L140.4 560.642C138.511 557.15 135.794 553.192 130.954 553.108C125.523 553.018 111.774 551.656 107.073 553.277C114.961 550.556 131.783 545 136.049 538.956C141.45 531.311 140.708 515.311 141.879 505.744Z"
        fill="#BB522F" />
    <path
        d="M318.42 828.282C318.785 827.712 319.144 827.176 319.5 826.676C316.475 830.923 317.443 854.656 319.428 859.849C322.524 867.945 335.173 871.48 344.197 875.687C335.151 877.891 319.243 876.976 311.801 880.87C307.939 882.891 294.354 900.842 294.528 904.6L293.25 877.092C293.065 873.126 292.336 868.381 288.013 866.204C283.159 863.764 271.366 856.567 266.427 855.986C274.713 856.96 292.28 859.259 298.747 855.667C306.932 851.126 313.211 836.391 318.42 828.282Z"
        fill="#BB522F" />
    <path
        d="M670.46 619.674C670.314 619.014 670.186 618.381 670.083 617.776C670.963 622.915 688.48 638.958 693.563 641.21C701.487 644.721 712.911 638.241 722.256 634.805C717.443 642.775 705.581 653.414 703.097 661.437C701.808 665.602 704.966 687.891 707.754 690.417L687.341 671.933C684.397 669.269 680.517 666.441 675.926 667.973C670.775 669.696 657.356 672.989 653.463 676.082C659.995 670.891 674.008 660.052 676.019 652.932C678.566 643.925 672.54 629.085 670.46 619.674Z"
        fill="#BB522F" />
</svg>