<svg width="432" height="1111" viewBox="0 0 432 1111" fill="none" xmlns="http://www.w3.org/2000/svg">
    <path
        d="M324.432 0.407757L335.623 11.125C335.817 11.3096 336.059 11.4375 336.321 11.4947C336.583 11.5523 336.856 11.5372 337.109 11.4512L353.126 6.0142C353.271 5.96537 353.421 5.9395 353.572 5.93657C353.708 5.93412 353.844 5.95073 353.977 5.98637C354.257 6.06108 354.509 6.21684 354.701 6.43412C354.815 6.56205 354.904 6.70805 354.967 6.86528C355.01 6.97465 355.041 7.0894 355.057 7.20707C355.075 7.335 355.076 7.46391 355.06 7.59086C355.041 7.74907 354.995 7.90336 354.926 8.04789L348.157 21.8038C348.119 21.8799 348.088 21.9585 348.065 22.0391C348.049 22.0918 348.037 22.1451 348.027 22.1993C348.005 22.3262 348 22.4566 348.012 22.5865C348.038 22.856 348.137 23.1128 348.3 23.3291L361.134 40.6441C361.32 40.8921 361.423 41.1929 361.429 41.5035C361.434 41.8135 361.341 42.1177 361.163 42.3721C360.985 42.6265 360.732 42.8184 360.439 42.92C360.145 43.0215 359.827 43.0284 359.53 42.939L339.366 36.8106C339.034 36.7085 338.676 36.7276 338.357 36.8633C338.037 36.9996 337.775 37.2442 337.618 37.5538L328.371 56.1465C328.32 56.2525 328.257 56.3516 328.184 56.4419C328.065 56.587 327.919 56.7085 327.752 56.7994C327.659 56.8497 327.562 56.8897 327.461 56.919C327.27 56.9747 327.067 56.9908 326.868 56.9654C326.71 56.9454 326.557 56.8995 326.416 56.8311C326.284 56.7671 326.162 56.6831 326.054 56.5821C325.83 56.3716 325.677 56.0962 325.619 55.7945L321.772 37.5411C321.726 37.3125 321.627 37.0987 321.482 36.9175C321.383 36.794 321.265 36.6875 321.133 36.6031C321.07 36.563 321.005 36.5279 320.937 36.4976L303.668 28.7398C303.522 28.6719 303.388 28.5806 303.272 28.4703C303.187 28.3887 303.11 28.2969 303.046 28.1963C302.895 27.9595 302.815 27.6846 302.815 27.4034C302.815 27.3213 302.822 27.2403 302.835 27.1602C302.843 27.1119 302.854 27.064 302.867 27.0166C302.906 26.8736 302.966 26.7369 303.046 26.6109C303.197 26.3741 303.413 26.1856 303.668 26.0669L321.471 17.8663C321.581 17.816 321.684 17.753 321.777 17.6788C321.84 17.628 321.9 17.5718 321.955 17.5108C322.011 17.4488 322.062 17.3814 322.107 17.3101C322.259 17.0669 322.338 16.7842 322.332 16.4971L321.941 1.50297C321.94 1.43217 321.943 1.36137 321.952 1.29155C321.957 1.25151 321.963 1.21147 321.972 1.17192C322.008 0.99809 322.076 0.831586 322.172 0.680707C322.329 0.435101 322.555 0.241742 322.821 0.124554C323.087 0.00736684 323.383 -0.0282777 323.669 0.0225036C323.956 0.0727965 324.222 0.206586 324.432 0.407757Z"
        fill="#C65833" />
    <path fill-rule="evenodd" clip-rule="evenodd"
        d="M233.543 183.297C222.624 190.59 209.786 194.483 196.653 194.483C179.052 194.453 162.181 187.449 149.735 175.007C137.889 163.165 130.971 147.313 130.306 130.64C116.755 125.193 104.39 119.751 93.7071 114.506C57.0704 96.4742 54.3707 88.0254 56.0269 82.5884C58.0748 76.4864 67.4131 74.7784 87.3296 76.9165C102.025 78.5337 122.098 82.2837 144.094 87.5415C151.16 78.3916 160.512 71.2232 171.243 66.7798C183.376 61.7559 196.727 60.441 209.607 63.0025C222.487 65.5635 234.319 71.8853 243.605 81.1685C252.891 90.4517 259.215 102.279 261.777 115.155C262.449 118.532 262.855 121.941 262.996 125.352C283.917 133.896 302.503 142.764 315.563 150.414C332.727 160.545 339.196 167.403 337.201 173.583C336.053 177.129 332.544 180.65 318.706 180.65C311.585 180.65 301.738 179.711 288.121 177.377C276.365 175.37 263.133 172.538 248.944 169.014C244.624 174.532 239.434 179.362 233.543 183.297ZM240.133 166.769C223.908 162.534 206.625 157.473 188.997 151.77C171.372 146.068 154.404 140.05 138.781 133.987C139.739 143.413 142.991 152.494 148.29 160.421C154.683 169.986 163.771 177.441 174.403 181.843C185.036 186.245 196.735 187.396 208.022 185.151C219.309 182.905 229.676 177.364 237.813 169.229C238.611 168.43 239.385 167.61 240.133 166.769ZM254.849 127.89C254.821 120.357 253.33 112.864 250.417 105.838C246.011 95.21 238.551 86.127 228.981 79.7374C219.412 73.3477 208.161 69.9385 196.653 69.941C181.23 69.962 166.444 76.0967 155.539 87.0005C145.35 97.188 139.327 110.761 138.565 125.076C154.928 131.515 172.871 137.929 191.488 143.96C210.126 149.998 228.454 155.33 245.511 159.71C249.489 153.565 252.292 146.694 253.733 139.444C254.46 135.788 254.831 132.087 254.849 128.394C254.844 128.321 254.842 128.248 254.841 128.174C254.84 128.079 254.843 127.984 254.849 127.89ZM262.776 134.158C262.17 140.775 260.57 147.301 257.999 153.507C256.81 156.377 255.426 159.147 253.861 161.802C265.39 164.619 276.231 166.956 286.061 168.733C318.784 174.626 327.275 171.992 329.101 171.066C328.293 169.619 324.706 165.069 308.859 156.085C296.975 149.344 280.768 141.642 262.776 134.158ZM130.547 121.868C131.447 112.332 134.402 103.095 139.218 94.7964C122.821 90.8555 106.234 87.7466 89.5206 85.483C71.5479 83.3057 65.8091 84.7007 64.1919 85.3785C65.1568 87.2691 70.7261 94.375 100.372 108.613C109.391 112.933 119.55 117.392 130.547 121.868Z"
        fill="#C65833" />
    <path fill-rule="evenodd" clip-rule="evenodd"
        d="M283.974 1110.99C284.649 1110.99 285.315 1110.83 285.913 1110.51C286.509 1110.19 287.018 1109.73 287.394 1109.17C287.542 1108.95 287.667 1108.72 287.768 1108.48C287.925 1108.1 288.026 1107.7 288.066 1107.29C288.132 1106.62 288.03 1105.94 287.769 1105.32C262.323 1043.29 237.842 969.718 249.15 894.096V893.978C257.657 823.474 272.044 752.878 285.958 684.608L285.959 684.604L286.303 682.918C300.142 615.014 314.515 544.494 323.01 474.026C323.078 473.475 323.034 472.917 322.88 472.383C302.533 402.511 274.831 320.734 223.769 243.508C219.152 236.519 213.948 231.486 208.326 228.54C206.521 227.597 204.529 227.063 202.494 226.977C200.459 226.89 198.429 227.253 196.55 228.04C194.671 228.827 192.988 230.018 191.622 231.528C190.256 233.039 189.239 234.832 188.645 236.78C187.348 241.764 186.994 246.947 187.602 252.061C191.749 299.104 230.251 393.697 235.494 404.023C237.203 410.347 239.198 416.461 241.128 422.368L241.131 422.376L241.133 422.38C246.609 439.209 251.784 455.111 248.667 470.766C247.47 474.63 246.287 478.593 245.116 482.591C236.209 454.258 225.278 429.15 212.552 407.856C194.84 378.22 172.981 354.751 147.561 338.075C144.584 336.114 141.049 335.176 137.492 335.402H137.257C135.013 335.58 132.829 336.213 130.838 337.262C128.847 338.311 127.09 339.754 125.675 341.504C124.294 343.173 123.273 345.109 122.676 347.192C122.079 349.274 121.919 351.457 122.206 353.604C124.697 372.04 133.944 391.272 145.682 415.614C148.707 421.911 151.804 428.357 155.018 435.248C151.505 432.106 147.729 428.382 143.843 424.545L143.835 424.537C125.237 406.18 102.103 383.346 78.1211 393.488C73.0738 395.626 69.8394 398.925 68.522 403.306C65.835 412.185 71.8477 422.342 77.6519 431.169L77.8477 431.43C86.7642 442.722 96.3916 453.436 106.672 463.504C119.015 475.689 130.603 488.613 141.374 502.206C140.67 505.002 139.97 507.837 139.271 510.714C137.596 508.955 135.892 507.13 134.14 505.252C121.801 492.019 107.807 477.024 90.46 471.757C82.1778 469.228 76.2564 470.153 72.8653 474.482C68.3135 480.271 69.6045 490.884 76.9214 507.874C81.1377 517.348 85.92 526.562 91.2422 535.462C93.3755 539.099 95.6749 542.744 97.9258 546.312L97.9288 546.317L97.9327 546.323C98.4317 547.114 98.9283 547.901 99.42 548.684L99.5567 548.901C108.801 563.606 118.366 578.821 122.544 595.843C122.646 596.24 122.806 596.617 123.016 596.962C123.206 597.274 123.438 597.561 123.706 597.814C121.894 606.331 119.748 614.753 117.054 622.937C111.212 640.766 101.539 657.321 92.1832 673.332L92.1802 673.336L91.6363 674.267L91.6319 674.274C82.3296 690.193 72.9048 706.322 66.7613 724.193C44.002 790.819 32.1851 886.546 67.2959 955.428C76.8453 974.346 82.7012 994.909 84.5513 1016.02C87.4561 1046.11 88.0708 1076.37 86.3907 1106.56C86.3814 1106.77 86.3882 1106.98 86.4112 1107.19C86.4483 1107.53 86.5279 1107.86 86.649 1108.19C86.8443 1108.71 87.1426 1109.18 87.5264 1109.58C87.732 1109.8 87.9595 1109.99 88.2051 1110.16C88.4185 1110.3 88.6451 1110.42 88.8824 1110.52C89.3931 1110.74 89.9429 1110.86 90.4991 1110.86L94.3272 1110.86L95.1875 1092L95.2623 1092C96.0406 1066.41 95.1993 1040.78 92.7422 1015.29C90.8038 993.141 84.6548 971.567 74.626 951.725C40.7149 885.125 52.3233 791.914 74.5479 726.879C80.4214 709.678 89.7852 693.644 98.8467 678.129L99.0679 677.75C108.72 661.27 118.632 644.215 124.853 625.44C131.749 604.396 135.127 582.248 138.394 560.836L138.418 560.679C140.739 545.385 143.139 529.582 146.804 514.471C147.774 510.452 148.748 506.515 149.725 502.653C149.796 502.445 149.851 502.231 149.887 502.015C154.774 482.769 159.777 465.41 165.064 449.188C165.219 448.724 165.393 448.146 165.59 447.468C165.711 447.221 165.807 446.963 165.877 446.7C165.932 446.489 165.97 446.275 165.992 446.059L166.215 445.265L166.22 445.246L166.222 445.241L166.538 444.119C166.585 444.02 166.627 443.919 166.666 443.816C166.737 443.628 166.794 443.437 166.836 443.242C166.865 443.107 166.888 442.971 166.903 442.834C167.084 442.204 167.274 441.543 167.477 440.856C169.55 433.463 172.694 422.276 175.967 412.72C180.937 398.299 183.585 395.378 184.184 394.87C186.06 394.41 188.029 394.513 189.846 395.168C191.663 395.821 193.246 396.997 194.397 398.547C204.557 412.602 206.931 431.899 209.409 452.33C209.525 468.893 209.859 485.494 210.183 501.563V501.567L210.194 502.123V502.17C210.741 529.273 211.273 555.661 210.817 581.788C210.804 582.018 210.804 582.249 210.817 582.479C210.511 611.712 208.285 640.894 204.153 669.836C204.149 669.878 204.147 669.919 204.145 669.961L204.144 669.99L204.143 670.023V670.093L204.144 670.127C204.145 670.182 204.148 670.237 204.153 670.292C203.305 693.565 202.444 717.635 208.548 738.561C208.892 739.564 209.609 740.395 210.55 740.882C211.492 741.37 212.585 741.476 213.602 741.179C214.078 741.04 214.52 740.817 214.91 740.526C215.103 740.383 215.282 740.223 215.447 740.047C215.663 739.818 215.854 739.564 216.014 739.287C216.545 738.37 216.702 737.283 216.452 736.253C210.726 716.696 211.548 693.37 212.356 670.827C216.49 641.815 218.73 612.565 219.061 583.261C231.482 560.378 239.9 530.804 248.052 502.165L248.272 501.392C250.968 491.925 253.752 482.155 256.584 473.009C256.584 472.931 256.612 472.853 256.641 472.773L256.644 472.766C256.653 472.74 256.662 472.714 256.67 472.688C256.677 472.665 256.684 472.641 256.689 472.618C260.327 454.757 254.799 437.796 248.943 419.832L248.941 419.825C247.011 413.88 245.028 407.726 243.32 401.467C243.204 401.043 243.023 400.638 242.785 400.268C239.785 395.3 199.901 297.917 195.832 251.331C195.338 247.265 195.585 243.144 196.562 239.166C196.619 238.981 196.685 238.8 196.76 238.624C196.809 238.509 196.862 238.397 196.918 238.286C197.065 237.994 197.238 237.716 197.434 237.454C197.54 237.312 197.653 237.174 197.773 237.042C198.328 236.43 199.01 235.948 199.771 235.628C200.532 235.309 201.354 235.16 202.178 235.192C203.002 235.225 203.81 235.437 204.544 235.815C208.926 238.11 213.1 242.23 216.947 248.045C267.201 324.006 294.629 404.779 314.768 473.882C306.225 544.185 291.878 614.579 278 682.666C264.019 751.156 249.58 821.994 241.011 892.883C229.817 967.843 252.656 1040.29 277.535 1102L277.541 1102L277.658 1102.31C277.724 1102.47 277.791 1102.64 277.857 1102.8H277.846L280.952 1110.95L283.961 1110.95L283.974 1110.99ZM214.178 427.484C224.608 447.819 233.498 470.988 240.931 497.12L240.176 499.764C233.916 521.812 227.486 544.42 219.308 563.808C219.308 543.429 218.93 522.841 218.5 501.836L218.49 501.38C218.167 485.264 217.834 468.615 217.717 452.043C217.722 451.986 217.725 451.93 217.726 451.873C217.728 451.773 217.725 451.673 217.717 451.574L217.679 451.271C216.691 443.32 215.69 435.273 214.178 427.484ZM143.087 344.907C159.866 355.918 174.833 369.72 188.079 386.46C185.993 386.282 183.88 386.469 181.836 387.021C175.956 388.599 170.921 399.428 161.907 430.565C159.046 424.453 156.274 418.682 153.707 413.338L153.091 412.055L153.05 411.971C141.683 388.32 132.702 369.634 130.397 352.508C130.262 351.473 130.343 350.42 130.635 349.417C130.776 348.931 130.965 348.462 131.199 348.017C131.447 347.542 131.747 347.094 132.092 346.68C132.484 346.195 132.929 345.757 133.417 345.373C133.813 345.06 134.237 344.783 134.686 344.546C135.685 344.018 136.782 343.697 137.909 343.604H138.118C139.871 343.491 141.614 343.948 143.087 344.907ZM138.065 430.399C145.101 437.343 151.32 443.471 157.038 447.428C152.464 461.387 148.132 476.21 143.907 492.333C134.085 480.279 123.619 468.762 112.554 457.832C102.537 448.005 93.1539 437.554 84.46 426.54C81.1993 421.611 74.6128 411.598 76.3868 405.679C76.9869 403.723 78.5909 402.21 81.3296 401.063C100.229 393.058 121.214 413.763 138.065 430.399ZM128.613 511.379C131.518 514.488 134.289 517.452 137.073 520.251C134.296 533.214 132.285 546.416 130.324 559.298L130.264 559.688C129.146 567.059 128.012 574.522 126.726 581.981C121.564 568.508 113.856 556.281 106.349 544.369L106.307 544.303C104.944 542.145 103.563 539.954 102.194 537.753C100.85 535.592 99.5191 533.422 98.233 531.264C93.1192 522.649 88.5245 513.737 84.4732 504.575C76.0997 485.134 78.7212 480.271 79.3345 479.502C80.3516 478.198 83.6255 478.198 88.0601 479.567C103.307 484.196 115.919 497.73 128.127 510.859L128.613 511.379Z"
        fill="#C65833" />
    <path
        d="M58.6358 320.395L48.3321 308.869C48.1446 308.631 47.8873 308.457 47.5962 308.371C47.3052 308.286 46.9947 308.293 46.7081 308.392C46.4209 308.491 46.1724 308.676 45.9957 308.923C45.8194 309.17 45.7242 309.465 45.7237 309.769L44.941 324.724C44.939 324.792 44.9322 324.859 44.9205 324.925C44.9156 324.953 44.9097 324.98 44.9034 325.007C44.8589 325.192 44.7789 325.367 44.6656 325.522C44.4961 325.754 44.2603 325.931 43.9888 326.027L25.6377 332.807C25.3858 332.91 25.168 333.081 25.0079 333.3C24.9541 333.374 24.9078 333.452 24.8692 333.533C24.7925 333.695 24.7457 333.871 24.732 334.051C24.7115 334.321 24.7671 334.593 24.8926 334.834C25.0181 335.075 25.2085 335.276 25.4419 335.415L42.0196 344.424C42.0538 344.443 42.087 344.463 42.1192 344.484C42.2813 344.59 42.4214 344.727 42.5313 344.888C42.6626 345.08 42.7466 345.301 42.7759 345.533L45.2017 363.995C45.2383 364.299 45.3692 364.584 45.5767 364.809C45.6836 364.926 45.8082 365.023 45.9454 365.099C46.0733 365.17 46.212 365.221 46.3565 365.251C46.6563 365.313 46.9678 365.279 47.2476 365.155C47.3682 365.101 47.48 365.032 47.5806 364.949C47.7139 364.839 47.8272 364.707 47.9146 364.556L58.6358 346.811C58.7559 346.609 58.9219 346.44 59.1187 346.318C59.212 346.26 59.3116 346.212 59.4165 346.176C59.7437 346.064 60.1001 346.072 60.4224 346.198L79.9864 353.838C80.2735 353.952 80.5889 353.973 80.8877 353.896C81.1866 353.82 81.4537 353.651 81.6504 353.414C81.7642 353.276 81.8511 353.121 81.9082 352.954C81.9502 352.832 81.9756 352.705 81.9839 352.574C82.004 352.267 81.9253 351.96 81.7603 351.7L70.3741 333.524C70.2364 333.294 70.1636 333.03 70.1636 332.762C70.1636 332.493 70.2364 332.23 70.3741 331.999L78.1998 318.83C78.3477 318.58 78.418 318.291 78.4019 318.001C78.3863 317.71 78.2847 317.431 78.1104 317.198C77.9361 316.965 77.6968 316.79 77.4224 316.692C77.1485 316.595 76.8516 316.582 76.5694 316.653L60.2139 320.838C59.9361 320.927 59.6387 320.932 59.358 320.854C59.0777 320.775 58.8262 320.615 58.6358 320.395Z"
        fill="#C65833" />
    <path
        d="M30.607 149.475L44.002 164.443C44.125 164.582 44.2676 164.701 44.4249 164.797C44.5586 164.879 44.7027 164.945 44.854 164.991C45.1827 165.092 45.5332 165.101 45.8667 165.017L67.1265 159.593C67.4917 159.499 67.877 159.515 68.233 159.64C68.5889 159.764 68.8999 159.992 69.126 160.294C69.3526 160.596 69.4839 160.958 69.5044 161.335C69.5245 161.711 69.4322 162.085 69.2393 162.409L59.1182 179.516C59.0069 179.698 58.9278 179.897 58.8829 180.104C58.8545 180.236 58.8399 180.371 58.8399 180.506C58.8399 180.644 58.855 180.781 58.8843 180.914C58.9292 181.119 59.0079 181.316 59.1182 181.497L73.9869 205.11C74.2022 205.449 74.3047 205.848 74.2798 206.25C74.2652 206.483 74.2076 206.71 74.1114 206.921C74.0425 207.072 73.9537 207.214 73.8467 207.343C73.73 207.484 73.5938 207.607 73.4439 207.708C73.2647 207.829 73.065 207.919 72.8531 207.974C72.4634 208.074 72.0523 208.048 71.6783 207.9L46.3233 197.991C46.105 197.905 45.8741 197.861 45.6426 197.859C45.4981 197.858 45.3531 197.873 45.211 197.905C45.1451 197.92 45.0801 197.939 45.0162 197.961C44.5904 198.106 44.231 198.399 44.002 198.786L30.1895 221.903C29.9839 222.24 29.6788 222.505 29.3165 222.663C28.9541 222.819 28.5523 222.861 28.1656 222.781C28.0757 222.763 27.9874 222.738 27.9019 222.707C27.7984 222.669 27.6983 222.624 27.6031 222.569C27.438 222.475 27.2872 222.356 27.1558 222.216C26.8853 221.928 26.7105 221.564 26.6548 221.173L23.5118 197.183C23.4732 196.883 23.3643 196.598 23.1944 196.348C23.085 196.188 22.9522 196.045 22.8008 195.926C22.7173 195.859 22.628 195.8 22.5337 195.748L0.986863 184.014C0.924363 183.979 0.863816 183.941 0.805222 183.9C0.746629 183.858 0.690476 183.814 0.637254 183.767C0.473679 183.621 0.335496 183.447 0.230027 183.252C0.148484 183.102 0.0884255 182.942 0.0498513 182.778C0.005906 182.59 -0.00923072 182.396 0.00541772 182.202C0.0327615 181.838 0.164597 181.489 0.385301 181.198C0.477586 181.075 0.584031 180.965 0.702195 180.869C0.791062 180.797 0.886277 180.733 0.986375 180.678C1.06987 180.632 1.15727 180.592 1.24809 180.559L24.9727 171.758C25.1529 171.697 25.3223 171.611 25.4756 171.502C25.6294 171.393 25.7671 171.26 25.8833 171.109C26.1153 170.807 26.2525 170.443 26.2769 170.063L27.2813 150.636C27.3013 150.259 27.4336 149.897 27.6602 149.595C27.8873 149.293 28.1988 149.065 28.5552 148.941C28.9117 148.817 29.2969 148.801 29.6622 148.896C29.8399 148.942 30.0088 149.014 30.1641 149.107C30.3287 149.207 30.4781 149.33 30.607 149.475Z"
        fill="#C65833" />
    <path
        d="M409.796 284.135L407.944 265.543C407.927 265.372 407.885 265.205 407.82 265.047C407.753 264.883 407.661 264.729 407.547 264.59C407.323 264.32 407.024 264.121 406.687 264.021C406.618 264 406.547 263.983 406.477 263.971C406.421 263.962 406.366 263.955 406.311 263.951C406.09 263.935 405.868 263.96 405.655 264.025C405.319 264.129 405.022 264.331 404.801 264.604L393.401 278.646C393.185 278.915 392.893 279.113 392.564 279.218C392.234 279.322 391.882 279.327 391.549 279.232L368.79 272.779C368.462 272.686 368.115 272.689 367.789 272.789C367.463 272.888 367.173 273.079 366.953 273.339C366.733 273.599 366.592 273.917 366.548 274.254C366.504 274.592 366.558 274.935 366.703 275.243L376.472 295.844C376.597 296.092 376.662 296.367 376.662 296.646C376.662 296.783 376.646 296.92 376.615 297.053C376.584 297.189 376.536 297.321 376.472 297.447L365.673 317.213C365.618 317.314 365.573 317.42 365.539 317.529C365.464 317.768 365.44 318.022 365.47 318.273C365.496 318.488 365.561 318.696 365.661 318.885C365.731 319.018 365.817 319.142 365.919 319.254C366.168 319.527 366.495 319.715 366.855 319.793C367.215 319.872 367.59 319.836 367.929 319.69L390.976 309.899C391.362 309.734 391.794 309.712 392.196 309.836C392.597 309.96 392.941 310.223 393.167 310.577L406.875 331.986C407.076 332.299 407.371 332.541 407.718 332.676C408.065 332.813 408.445 332.836 408.806 332.744C409.167 332.651 409.489 332.448 409.728 332.162C409.966 331.876 410.109 331.522 410.135 331.151L411.909 305.271C411.919 305.13 411.945 304.991 411.987 304.858C412.043 304.683 412.126 304.516 412.232 304.365C412.421 304.098 412.679 303.888 412.979 303.758L429.934 296.443C430.257 296.309 430.533 296.081 430.727 295.79C430.921 295.499 431.024 295.157 431.024 294.807C431.024 294.701 431.015 294.595 430.996 294.491C430.953 294.254 430.862 294.026 430.727 293.824C430.673 293.744 430.614 293.668 430.549 293.599C430.378 293.415 430.168 293.269 429.934 293.171L410.983 285.608C410.667 285.499 410.388 285.302 410.179 285.042C409.969 284.781 409.836 284.467 409.796 284.135Z"
        fill="#C65833" />
</svg>