<svg xmlns="http://www.w3.org/2000/svg" viewBox="0 0 441.01 877.06">
    <defs>
        <style>
            .cls-1 {
                fill: #BB522F;
            }
        </style>
    </defs>
    <g id="katman_2" data-name="katman 2">
        <g id="Graphic_Elements" data-name="Graphic Elements">
            <path class="cls-1"
                d="M140.63,392.34c-11.36-33.52-19.77-68-26.29-103.06,3.31-27.63,19.29-47.67,33.25-72.19,8.23-14.45,16.47-29.18,20.5-45.32s3.89-37.14-4.86-51.29c-7.34,29.62-24.86,55.49-38,83-8.38,17.49-15,36.91-15.94,56.05q-2.89-18.47-5.28-37c9-33.44,17.66-68,12.25-102.16C109.67,79.05,82.94,41.81,83,0c-11,38.14-20.07,74.35-19,114,1,37.22,12.24,75.67,34.71,105.38,2.83,22.35,6.14,44.65,10.16,66.76a227.18,227.18,0,0,0-24.6-49.83A228.22,228.22,0,0,0,1.41,160.9C29.05,185.15,40.68,224,62.09,253.85c11.85,16.54,26.72,30.78,38.11,47.63,9.07,13.42,15.56,25.13,20.56,40.52q5.8,23.12,13.15,45.73C105.08,336.36,56.29,296.35,0,278.83,24,290,46.75,315.18,62.6,336.38c9.21,12.33,16.71,26.07,27.71,36.83,13.68,13.39,31,22.33,48.76,29.63,12.24,34.32,27.68,67.53,47.53,99,1.67,2.67,6,.28,4.28-2.4-19.37-30.75-34.51-63.14-46.56-96.59,38.78-60.53,60.56-132.71,54.46-204.32C152.83,250.8,131.27,323.48,140.63,392.34Z" />
            <path class="cls-1"
                d="M108.16,440.17c.53-.27,1-.51,1.55-.73-4.23,1.84-14.31,20.3-15.17,25.14-1.34,7.56,6.65,16,11.58,23.3-7.86-2.44-19.52-10.38-26.94-10.82-3.86-.22-22.35,7.22-23.92,10.14Q61,476.48,66.82,465.75c1.66-3.1,3.27-7,1-10.65-2.57-4.07-8.24-14.9-11.73-17.59C61.92,442,74.21,451.77,80.75,452,89,452.27,100.51,444,108.16,440.17Z" />
            <path class="cls-1"
                d="M261.52,143.8l.85-.4c-2.33,1-7.89,11.2-8.36,13.87-.74,4.17,3.67,8.82,6.39,12.85-4.34-1.35-10.77-5.73-14.87-6-2.12-.12-12.32,4-13.19,5.6q3.18-5.92,6.38-11.84c.91-1.7,1.8-3.88.54-5.87-1.42-2.24-4.55-8.22-6.47-9.7,3.22,2.49,10,7.86,13.61,8C251,150.48,257.3,145.89,261.52,143.8Z" />
            <path class="cls-1"
                d="M272.73,289.2c.41-.2.79-.38,1.16-.54-3.16,1.38-10.7,15.19-11.34,18.81-1,5.65,5,12,8.66,17.44-5.88-1.83-14.61-7.77-20.16-8.1-2.88-.17-16.72,5.4-17.9,7.59q4.33-8,8.65-16.06c1.25-2.31,2.45-5.26.74-8-1.93-3-6.17-11.14-8.78-13.15,4.38,3.37,13.57,10.67,18.47,10.83C258.42,298.26,267,292,272.73,289.2Z" />
            <path class="cls-1"
                d="M168.63,877.06h-.16a2.82,2.82,0,0,1-2.66-3c2-36.94,2.3-78.66-18.6-106.36-10.54-14-17.11-33.42-19-56.3-1.86-22.26.72-47.27,7.46-72.33,13.25-49.26,23.24-144.34,14.65-164.45L149.6,473l1.23-1.34a16.11,16.11,0,0,1,14.92-4.88c9.13,1.49,18.23,9.13,22.67,19,6.18,13.78,5.12,46.73,3.14,72C190,577.3,195.09,612,206.84,624.11c1.77,1.82,4.17,2.37,7.34,1.68,6.32-1.39,15-7.6,23.87-17,7.7-8.23,14.23-17.59,16.25-23.3a239.26,239.26,0,0,0,9.34-33.66c3.61-19.43.5-25.69-1.67-27.69-3.05-2.81-13-8.56-24.52-15.22-28.86-16.7-68.4-39.56-75.6-57.57l-.09-.23,0-.25c-.77-3.75-1.39-9.05,2-11.85,4.26-3.52,11.53-.54,20.73,3.23,6.9,2.82,14.72,6,21.52,6.5,13.39.93,32.86,7.82,50,13.9,8.71,3.08,16.94,6,22.78,7.51,8.66,2.26,18.41,9.87,26.74,20.89,8.1,10.7,13.85,23.16,15.78,34.18,3.93,22.39-1.33,77.88-4.56,89.08a2.82,2.82,0,0,1-5.41-1.56c3.14-10.88,8.25-64.79,4.43-86.55-3.77-21.47-22.79-46.53-38.4-50.59-6.06-1.58-14.41-4.53-23.24-7.66-16.84-6-35.92-12.71-48.55-13.59-7.71-.54-16-3.92-23.26-6.91-5.32-2.18-13.35-5.47-15-4.1-.12.1-1.11,1.1-.12,6.14,6.76,16.19,46.66,39.26,73.1,54.55,12.78,7.39,22,12.73,25.51,16,5.46,5,6.57,15.77,3.4,32.85a245.12,245.12,0,0,1-9.58,34.51c-2.29,6.47-9.14,16.4-17.45,25.27-5.64,6-16.63,16.48-26.76,18.7-6.42,1.41-10.39-1-12.58-3.25-7.89-8.12-12.09-22.88-14.23-33.82-2.43-12.48-3.44-26.62-2.63-36.92,2.72-34.72,1.78-59.3-2.66-69.21-3.64-8.1-11.22-14.58-18.44-15.76a10.8,10.8,0,0,0-8.66,2c5.16,15.81,2.21,55.12.64,71.79-3.2,34.07-9.23,70.26-15.74,94.45-13.42,49.91-9.35,97.34,10.61,123.78,22.05,29.21,21.75,72.12,19.73,110A2.81,2.81,0,0,1,168.63,877.06Z" />
            <path class="cls-1"
                d="M293.36,866.05a2.81,2.81,0,0,1-2.61-1.77c-37.68-94.34,7.54-154,31.84-186,2-2.66,3.91-5.16,5.58-7.45,9.88-13.54,25.83-48.18,39.69-86.19a486.68,486.68,0,0,0,15-47.44c4.93-19.91,3-23.44,2.75-23.77-3.91-5.54-8.95-17.25-14.78-30.81-7.17-16.67-15.3-35.57-22.09-44.14-6.13-7.75-13.28-22.59-19.59-35.68-3.94-8.18-9.17-19-11.79-22.4-4.59,5.35-15.6,26.09-8.81,50.82,5.42,19.75,15.93,40,22.89,53.47,2.92,5.65,5.24,10.11,6.27,12.82,1.82,4.8,2.79,14.39.85,25-1.62,8.87-5.84,21.66-16.76,32.2a2.81,2.81,0,0,1-3.91-4.05c9.85-9.5,13.67-21.1,15.14-29.15,1.73-9.51.91-18.08-.58-22-.92-2.41-3.16-6.75-6-12.23-7.06-13.64-17.74-34.25-23.32-54.57-8.32-30.3,7.31-54.51,12.06-58a3.56,3.56,0,0,1,3-.57c3.57.9,6.84,7.14,16,26.19,6.18,12.83,13.18,27.37,18.93,34.63,7.26,9.16,15.54,28.42,22.85,45.41,5.46,12.72,10.63,24.73,14.2,29.78,1.78,2.51,3.16,8-1.88,28.38a496.19,496.19,0,0,1-15.17,48c-11.67,32-28.7,71.49-40.44,87.58-1.7,2.33-3.61,4.85-5.64,7.53-23.63,31.16-67.6,89.16-31.1,180.54a2.82,2.82,0,0,1-1.57,3.66A2.91,2.91,0,0,1,293.36,866.05Z" />
            <path class="cls-1"
                d="M369.22,591.85a2.78,2.78,0,0,1-2-.82,2.81,2.81,0,0,1,0-4c40.4-40.65,35.35-88.81,31.3-107.64-2.12-9.86-.32-23.14,1.42-36,1.89-13.9,3.83-28.23.54-36.73-8.23,4.67-15.86,13-21.72,23.68-6.26,11.47-9.64,24.44-9.28,35.58a2.81,2.81,0,1,1-5.62.18c-.85-25.89,15.95-56,36.69-65.81l2.29-1.08,1.32,2.18c5.84,9.7,3.66,25.75,1.36,42.75-1.68,12.37-3.41,25.16-1.5,34.06,4.24,19.72,9.53,70.19-32.81,112.79A2.83,2.83,0,0,1,369.22,591.85Z" />
            <path class="cls-1"
                d="M352.79,632.57a2.76,2.76,0,0,1-1.84-.69,2.8,2.8,0,0,1-.28-4c7.73-8.93,20.22-19.64,33.45-31C396.66,586.18,409.64,575.05,419,565c9.82-10.56,14.13-18.36,12.8-23.21-2.78-10.09-.56-25.65,1.39-39.39,1.07-7.52,2.08-14.62,2.19-20,.1-4.89-.59-6.9-1.12-7.71-6.18,1.92-18.1,11.55-27.67,31.71a2.81,2.81,0,1,1-5.08-2.41c4.89-10.3,11-19.16,17.6-25.62,5.46-5.33,11.07-8.79,15.39-9.51l.88-.15.81.39c6.95,3.36,5.11,16.27,2.57,34.13-1.88,13.2-4,28.15-1.54,37.11,4.12,15-21.88,37.27-49.41,60.88-13.06,11.2-25.4,21.78-32.86,30.39A2.82,2.82,0,0,1,352.79,632.57Z" />
        </g>
    </g>
</svg>