<svg width="85" height="350" viewBox="0 0 85 350" fill="#FFF6FB" xmlns="http://www.w3.org/2000/svg">
    <path
        d="M47.1272 329.009C44.7488 330.785 41.1196 331.277 38.3287 332.07C36.6904 332.535 32.929 333.301 32.103 335.1C31.2821 336.886 31.2144 339.456 30.8368 341.384C30.5786 342.699 29.2568 349.944 27.1474 349.833C25.7425 350.005 24.3511 347.185 23.8193 346.345C22.681 344.544 21.4144 342.831 20.2153 341.072C19.3872 339.854 18.6001 338.612 17.7466 337.414C17.5005 337.068 17.1718 336.862 16.8114 336.716C13.4452 337.205 9.88327 337.053 6.50309 337.24C5.66171 337.289 4.49412 337.417 3.40721 337.349C2.71959 337.449 1.87347 337.586 1.29288 337.375C0.494724 337.083 0.45552 336.486 0.757492 335.983C1.23397 334.068 3.63655 332.082 4.75795 330.756C6.04552 329.23 7.21744 327.613 8.5372 326.115C9.72462 324.761 9.71682 323.438 9.59895 321.963C8.43289 319.336 7.47826 316.592 6.48942 313.915C5.94483 312.441 3.89969 309.514 4.91774 307.944C5.66935 306.787 8.11725 308.223 8.88541 308.634C12.0779 310.339 15.8859 310.728 19.0585 312.418C21.7102 312.736 24.3254 309.849 26.0878 308.372C28.299 306.52 30.4452 304.363 32.9267 302.882C33.8545 302.329 34.2997 302.777 34.4661 303.501C35.2289 304.525 34.8661 306.592 34.7654 307.627C34.404 311.366 33.7355 316.057 35.5869 319.482C39.591 322.046 44.1563 324.463 47.2142 328.037C47.4485 328.311 47.427 328.787 47.1272 329.009Z"
        fill="#FFF6FB" />
    <path
        d="M54.8294 194.42L47.3835 187.272C47.2434 187.138 47.0668 187.048 46.8761 187.015C46.6853 186.981 46.4889 187.005 46.3116 187.083C46.1343 187.161 45.9841 187.29 45.8799 187.454C45.7756 187.617 45.7221 187.808 45.726 188.002L45.9863 198.002C45.9901 198.194 45.9379 198.382 45.8361 198.545C45.7343 198.707 45.5875 198.836 45.4136 198.915L33.5679 204.385C33.3983 204.464 33.2547 204.59 33.1541 204.748C33.0535 204.906 33 205.089 33 205.276C33 205.464 33.0535 205.647 33.1541 205.805C33.2547 205.963 33.3983 206.089 33.5679 206.168L45.0578 211.342C45.1993 211.404 45.3237 211.5 45.4203 211.621C45.517 211.743 45.5832 211.885 45.6132 212.037L48.1732 224.211C48.2121 224.413 48.3134 224.596 48.4625 224.736C48.6117 224.877 48.8012 224.966 49.004 224.992C49.2069 225.018 49.4128 224.979 49.5924 224.881C49.7719 224.783 49.9161 224.631 50.0043 224.446L56.1571 212.046C56.2615 211.839 56.4355 211.676 56.6483 211.585C56.861 211.495 57.099 211.482 57.32 211.55L70.7365 215.637C70.9342 215.697 71.1458 215.693 71.3409 215.625C71.5361 215.557 71.7049 215.429 71.8232 215.259C71.9415 215.09 72.0034 214.887 71.9999 214.68C71.9964 214.473 71.9278 214.272 71.8039 214.107L63.2645 202.559C63.1561 202.415 63.0898 202.243 63.073 202.064C63.0561 201.884 63.0894 201.703 63.1691 201.542L67.6731 192.368C67.7566 192.193 67.787 191.998 67.7604 191.807C67.7339 191.615 67.6515 191.436 67.5237 191.291C67.3958 191.146 67.2282 191.042 67.0417 190.992C66.8553 190.943 66.6583 190.949 66.4755 191.011L55.8187 194.637C55.6497 194.695 55.4682 194.705 55.2938 194.666C55.1195 194.628 54.9589 194.543 54.8294 194.42Z"
        fill="#FFF6FB" />
    <path
        d="M84.0413 20.6231C82.2494 21.9617 79.515 22.3322 77.4123 22.9294C76.1779 23.2797 73.344 23.8573 72.7216 25.2122C72.1031 26.558 72.0521 28.4941 71.7676 29.9469C71.5731 30.9377 70.5773 36.3963 68.988 36.3128C67.9294 36.4425 66.8811 34.3177 66.4804 33.6851C65.6229 32.3277 64.6685 31.0373 63.7651 29.7117C63.1412 28.7943 62.5482 27.8583 61.9051 26.956C61.7197 26.6953 61.472 26.5403 61.2005 26.4302C58.6643 26.7982 55.9806 26.684 53.4339 26.8251C52.8 26.8617 51.9203 26.9579 51.1014 26.907C50.5833 26.9825 49.9458 27.0853 49.5084 26.9266C48.907 26.7064 48.8775 26.2567 49.105 25.878C49.464 24.4349 51.2742 22.9389 52.1191 21.9398C53.0892 20.79 53.9721 19.5718 54.9665 18.4429C55.8611 17.423 55.8552 16.426 55.7664 15.3148C54.8879 13.3357 54.1686 11.2683 53.4236 9.25146C53.0133 8.14081 51.4724 5.93507 52.2395 4.75233C52.8058 3.8807 54.6501 4.96287 55.2288 5.272C57.6341 6.55675 60.5032 6.84976 62.8935 8.12313C64.8914 8.36277 66.8618 6.18767 68.1896 5.0752C69.8556 3.67934 71.4726 2.05462 73.3423 0.938618C74.0413 0.522241 74.3767 0.859631 74.5021 1.40519C75.0768 2.17628 74.8035 3.73368 74.7276 4.51376C74.4553 7.33071 73.9516 10.8653 75.3465 13.4451C78.3633 15.3771 81.8029 17.1986 84.1069 19.8912C84.2834 20.0976 84.2672 20.456 84.0413 20.6231Z"
        fill="#FFF6FB" />
    <path
        d="M33.9076 100.186C32.4959 101.24 30.3418 101.532 28.6853 102.003C27.7129 102.278 25.4803 102.734 24.99 103.801C24.5028 104.861 24.4626 106.386 24.2385 107.531C24.0852 108.311 23.3007 112.612 22.0487 112.546C21.2148 112.648 20.3889 110.974 20.0733 110.476C19.3977 109.406 18.6459 108.39 17.9341 107.346C17.4426 106.623 16.9755 105.885 16.4689 105.175C16.3228 104.969 16.1277 104.847 15.9138 104.76C13.9158 105.05 11.8016 104.96 9.79534 105.071C9.29594 105.1 8.60293 105.176 7.95779 105.136C7.54966 105.196 7.04745 105.276 6.70284 105.151C6.2291 104.978 6.20583 104.624 6.38507 104.325C6.66788 103.189 8.09391 102.01 8.75952 101.223C9.52375 100.317 10.2193 99.3574 11.0027 98.4681C11.7075 97.6646 11.7028 96.8792 11.6329 96.0038C10.9408 94.4447 10.3741 92.816 9.78722 91.2271C9.46399 90.3522 8.2501 88.6145 8.85436 87.6828C9.30047 86.9961 10.7534 87.8486 11.2094 88.0922C13.1042 89.1043 15.3644 89.3351 17.2475 90.3383C18.8215 90.527 20.3737 88.8135 21.4197 87.9371C22.7322 86.8375 24.0061 85.5575 25.479 84.6784C26.0296 84.3503 26.2939 84.6161 26.3926 85.0459C26.8454 85.6534 26.6301 86.8803 26.5703 87.4948C26.3558 89.714 25.959 92.4985 27.0579 94.5309C29.4345 96.0528 32.1442 97.4878 33.9592 99.609C34.0983 99.7716 34.0855 100.054 33.9076 100.186Z"
        fill="#FFF6FB" />
</svg>