<svg width="85" height="39" viewBox="0 0 85 39" fill="#FFF6FB" xmlns="http://www.w3.org/2000/svg">
    <path
        d="M42.0751 0.00580895L42.5607 0.0129315C59.3269 0.255097 74.2222 8.03798 84.0751 20.0893C73.8809 31.8527 58.7683 39.2021 42 38.9599L41.5144 38.9528C24.7461 38.7106 9.85295 30.9318 0 18.8744C10.1963 7.11002 25.3089 -0.236357 42.0751 0.00580895ZM41.1477 33.1296C43.7192 33.1678 46.2443 32.4412 48.4035 31.0417C50.5627 29.6422 52.2591 27.6327 53.2781 25.2674C54.2971 22.9021 54.5929 20.2871 54.1282 17.7534C53.6634 15.2196 52.4589 12.8808 50.6671 11.0328C48.8753 9.18482 46.5766 7.91064 44.0617 7.37143C41.5469 6.83223 38.9289 7.05222 36.5389 8.00359C34.1489 8.95495 32.0943 10.595 30.6349 12.7162C29.1754 14.8374 28.3768 17.3445 28.3399 19.9204C28.2905 23.3731 29.612 26.7042 32.0137 29.1812C34.4155 31.6582 37.7009 33.0785 41.1477 33.1296Z"
        fill="#FFF6FB" />
</svg>