<svg xmlns="http://www.w3.org/2000/svg" viewBox="0 0 330.48 852.1"><defs><style>.cls-1{fill:#202020;}</style></defs><g id="katman_2" data-name="katman 2"><g id="Graphic_Elements" data-name="Graphic Elements"><path class="cls-1" d="M188.06,384.49a3.16,3.16,0,0,0,3-4c-7.33-26-16.77-48.79-28.05-67.67-13.58-22.73-30.34-40.73-49.83-53.52a12.58,12.58,0,0,0-7.72-2.05h-.18a12.71,12.71,0,0,0-8.88,4.68,12.06,12.06,0,0,0-2.66,9.28c1.91,14.14,9,28.89,18,47.56,3.28,6.83,6.67,13.89,10.27,21.82a3.15,3.15,0,0,0,5.74-2.6c-3.62-8-7.19-15.41-10.33-21.95-8.73-18.17-15.63-32.52-17.4-45.67a5.81,5.81,0,0,1,1.3-4.47,6.42,6.42,0,0,1,4.46-2.36h.16a6.25,6.25,0,0,1,3.81,1c34.78,22.83,59.4,61.31,75.27,117.63A3.17,3.17,0,0,0,188.06,384.49Z"/><path class="cls-1" d="M111.86,387.66a3.15,3.15,0,0,0,2.48-5.09,331.67,331.67,0,0,0-28-31.42,254.61,254.61,0,0,1-21.54-24c-2.5-3.78-7.55-11.46-6.19-16,.46-1.5,1.69-2.66,3.79-3.54,14.49-6.14,30.58,9.74,43.5,22.5,6.29,6.21,11.73,11.57,16.7,14.43a3.15,3.15,0,1,0,3.15-5.46c-4.27-2.46-9.69-7.8-15.42-13.46-14.26-14.08-32-31.6-50.39-23.82-3.87,1.64-6.35,4.17-7.36,7.53-2.06,6.81,2.55,14.6,7,21.37l.15.2a259.64,259.64,0,0,0,22.1,24.6,327.63,327.63,0,0,1,27.55,30.88A3.13,3.13,0,0,0,111.86,387.66Z"/><path class="cls-1" d="M97,459.37a3.2,3.2,0,0,0,.75-.09,3.16,3.16,0,0,0,2.32-3.81c-3.44-14.08-11.11-26.24-18.52-38-2.07-3.28-4.2-6.66-6.19-10A193,193,0,0,1,64.81,387c-6.42-14.91-4.41-18.64-3.94-19.23.78-1,3.29-1,6.69.05,11.69,3.55,21.36,13.93,30.72,24,2.71,2.9,5.26,5.64,7.85,8.19a3.15,3.15,0,0,0,4.42-4.49c-2.48-2.45-5-5.15-7.66-8-9.46-10.15-20.19-21.65-33.49-25.69-6.35-1.94-10.89-1.23-13.49,2.09-3.49,4.44-2.5,12.58,3.11,25.61A198.41,198.41,0,0,0,70,410.69c2,3.41,4.19,6.83,6.27,10.14C83.39,432.16,90.78,443.88,94,457A3.15,3.15,0,0,0,97,459.37Z"/><path class="cls-1" d="M217.77,852.1a3.14,3.14,0,0,0,2.91-4.35c-19.51-47.57-38.28-104-29.61-162,0,0,0-.06,0-.09,6.53-54.14,17.58-108.35,28.26-160.77S241.14,418,247.7,363.57a3.16,3.16,0,0,0-.1-1.26C232,308.72,210.76,246,171.61,186.77c-3.54-5.36-7.53-9.22-11.84-11.48a10.63,10.63,0,0,0-15.09,6.32,31.69,31.69,0,0,0-.8,11.72c3.18,36.08,32.7,108.63,36.72,116.55,1.31,4.85,2.84,9.54,4.32,14.07,4.2,12.91,8.17,25.11,5.78,37.12-2.23,7.2-4.4,14.85-6.51,22.24-4.8,16.91-9.73,34.25-16,49.12,0-15.63-.29-31.42-.62-47.53-.25-12.47-.51-25.36-.6-38.19a2.17,2.17,0,0,0,0-.36C165,330.5,163,314.12,154.23,302a13.85,13.85,0,0,0-14.77-5.16c-4.88,1.31-9,10.93-17.05,39.61-.79,2.81-1.41,5-1.77,6.13-5,15.2-9.62,31.73-14.16,50.55-2.87,11.86-4.73,24.11-6.54,36-2.46,16.21-5,33-10.15,48.65-4.51,13.77-12,26.55-19.22,38.91S56,541.56,51.23,555.44c-17.45,51.1-26.51,124.52.41,177.35a127.94,127.94,0,0,1,13.23,46.47,457.93,457.93,0,0,1,1.41,69.44A3.16,3.16,0,0,0,69.43,852l148.33.07ZM184.83,684.82c-8.62,57.74,9.08,113.54,28.25,161l-140.32-.07a465.94,465.94,0,0,0-1.61-67.05,134,134,0,0,0-13.89-48.75c-26-51.08-17.1-122.57-.06-172.45C61.74,544.2,69,531.81,76,519.82c7.4-12.64,15-25.72,19.77-40.12,5.3-16.18,7.89-33.21,10.4-49.67,1.78-11.73,3.62-23.85,6.43-35.44,4.5-18.65,9.09-35,14-50.07.41-1.23,1-3.5,1.85-6.39,1.59-5.67,4-14.25,6.51-21.58,3.81-11.06,5.84-13.3,6.3-13.69a7.52,7.52,0,0,1,7.83,2.82c7.79,10.78,9.61,25.58,11.51,41.25.09,12.82.35,25.67.6,38.1.42,20.83.83,41.11.48,61.19a4.69,4.69,0,0,0,0,.53,512.17,512.17,0,0,1-5.11,67,2.07,2.07,0,0,0,0,.35c-.65,17.85-1.31,36.31,3.37,52.36a3.16,3.16,0,0,0,6.06-1.77c-4.39-15-3.76-32.89-3.14-50.18A517.76,517.76,0,0,0,168,447.35c9.54-17.58,16-40.31,22.26-62.31,2.11-7.41,4.29-15.08,6.51-22.25,0-.1.06-.2.08-.3,2.79-13.7-1.45-26.71-5.94-40.49-1.48-4.56-3-9.28-4.31-14.08a3.32,3.32,0,0,0-.41-.92c-2.3-3.81-32.88-78.5-36-114.23a26,26,0,0,1,.56-9.33,4.33,4.33,0,0,1,6.12-2.57c3.36,1.76,6.56,4.92,9.51,9.38,38.53,58.26,59.56,120.21,75,173.21-6.55,53.92-17.55,107.91-28.19,160.13C202.47,576.12,191.4,630.45,184.83,684.82Z"/><path class="cls-1" d="M150.82,149.17A50.91,50.91,0,1,0,99.91,98.26,51,51,0,0,0,150.82,149.17Zm0-95.52a44.61,44.61,0,1,1-44.6,44.61A44.66,44.66,0,0,1,150.82,53.65Z"/><path class="cls-1" d="M244.4,138.56c10.61,0,13.3-2.7,14.18-5.42,1.53-4.74-3.43-10-16.59-17.77-10.41-6.1-25.4-13.21-42.22-20a3.15,3.15,0,1,0-2.37,5.84c15.43,6.26,29.44,12.83,39.45,18.51,12.15,6.89,14.9,10.38,15.52,11.49-1.4.71-7.91,2.73-33-1.79-20.19-3.65-45.94-10.39-72.51-19S95.51,92.18,77,83.31C54.27,72.39,50,66.94,49.26,65.49c1.24-.52,5.64-1.59,19.42.08a382.91,382.91,0,0,1,42.39,8.2,3.15,3.15,0,0,0,1.49-6.13C94.9,63.35,78.72,60.29,67,59c-15.27-1.64-22.43-.33-24,4.35C41.73,67.52,43.8,74,71.89,87.83c19,9.33,44.94,19.48,73.06,28.58s55.1,16.07,76,19.64C231.39,137.84,238.94,138.56,244.4,138.56Z"/><path class="cls-1" d="M45,245.74l-7.9-8.84a1.12,1.12,0,0,0-2,.69l-.6,11.47a1.1,1.1,0,0,1-.73,1l-14.07,5.2a1.12,1.12,0,0,0-.15,2l12.71,6.91a1.13,1.13,0,0,1,.58.85l1.86,14.16a1.12,1.12,0,0,0,2.08.43L45,266a1.12,1.12,0,0,1,1.37-.47l15,5.86a1.12,1.12,0,0,0,1.36-1.64L54,255.81a1.14,1.14,0,0,1,0-1.17l6-10.1a1.13,1.13,0,0,0-1.25-1.67l-12.54,3.21A1.14,1.14,0,0,1,45,245.74Z"/><path class="cls-1" d="M33.78,126.13,23.51,114.65a1.46,1.46,0,0,0-2.55.89l-.77,14.9a1.47,1.47,0,0,1-1,1.3L1,138.49a1.46,1.46,0,0,0-.2,2.65l16.52,9a1.47,1.47,0,0,1,.75,1.1l2.41,18.4a1.47,1.47,0,0,0,2.71.56l10.59-17.73a1.45,1.45,0,0,1,1.78-.61L55,159.46a1.46,1.46,0,0,0,1.77-2.14l-11.4-18.11a1.46,1.46,0,0,1,0-1.52l7.76-13.12a1.46,1.46,0,0,0-1.62-2.16l-16.3,4.16A1.44,1.44,0,0,1,33.78,126.13Z"/><path class="cls-1" d="M314.24,217.93l-1.42-14.26a1.36,1.36,0,0,0-2.41-.72l-8.74,10.77a1.35,1.35,0,0,1-1.42.45l-17.45-4.95a1.36,1.36,0,0,0-1.6,1.89l7.49,15.8a1.37,1.37,0,0,1,0,1.23l-8.28,15.16a1.36,1.36,0,0,0,1.73,1.9l17.67-7.51a1.36,1.36,0,0,1,1.68.52L312,254.63a1.36,1.36,0,0,0,2.5-.64l1.36-19.85a1.37,1.37,0,0,1,.82-1.16l13-5.61a1.36,1.36,0,0,0,0-2.51l-14.53-5.8A1.37,1.37,0,0,1,314.24,217.93Z"/><path class="cls-1" d="M257.37,8.54,248.79.32a1.13,1.13,0,0,0-1.91.84l.3,11.5a1.13,1.13,0,0,1-.66,1.05L232.87,20a1.13,1.13,0,0,0,0,2.05L246.11,28a1.11,1.11,0,0,1,.64.8l2.95,14a1.12,1.12,0,0,0,2.11.27l7.09-14.26a1.13,1.13,0,0,1,1.34-.57l15.46,4.7a1.13,1.13,0,0,0,1.23-1.76L267.09,17.9a1.12,1.12,0,0,1-.11-1.17l5.19-10.55a1.13,1.13,0,0,0-1.38-1.56L258.51,8.79A1.13,1.13,0,0,1,257.37,8.54Z"/></g></g></svg>