<svg width="134" height="138" viewBox="0 0 134 138" fill="none" xmlns="http://www.w3.org/2000/svg">
    <g clip-path="url(#clip0_15_286)">
        <path
            d="M44.7118 33.0771C44.8793 32.3845 45.0513 31.7273 45.2336 31.1074C43.6873 36.3753 52.7878 59.5933 56.5391 64.0556C62.3889 71.0127 76.1573 70.1168 86.5589 71.1494C78.3344 76.487 62.2297 81.1182 56.1774 87.5739C53.0362 90.9247 45.7078 113.471 47.1688 117.14L36.4665 90.2844C34.9224 86.4131 32.571 81.9572 27.533 81.3022C21.8786 80.5711 7.70295 77.5353 2.60133 78.6783C11.1608 76.7594 29.3871 72.9243 34.5754 67.1069C41.1427 59.7493 42.322 42.9389 44.7118 33.0771Z"
            fill="#BB522F" />
    </g>
    <g clip-path="url(#clip1_15_286)">
        <path
            d="M90.6335 2.75666C90.7196 2.40756 90.8077 2.07624 90.901 1.76364C90.1099 4.41992 94.6066 16.0806 96.4751 18.3159C99.3889 21.8007 106.298 21.3094 111.512 21.7986C107.371 24.5096 99.2794 26.8881 96.2247 30.1555C94.6393 31.8514 90.8973 43.2223 91.6193 45.065L86.3299 31.5777C85.5668 29.6335 84.4004 27.3974 81.8753 27.0825C79.0412 26.7311 71.9398 25.2445 69.3775 25.8348C73.6765 24.8438 82.8299 22.8598 85.4493 19.9162C88.765 16.1933 89.4059 7.7279 90.6335 2.75666Z"
            fill="#BB522F" />
    </g>
    <g clip-path="url(#clip2_15_286)">
        <path
            d="M103.085 80.3516C103.199 79.8897 103.315 79.4514 103.439 79.0379C102.392 82.5519 108.341 97.978 110.813 100.935C114.667 105.545 123.807 104.895 130.705 105.542C125.227 109.129 114.522 112.275 110.481 116.598C108.384 118.841 103.434 133.884 104.389 136.322L97.3915 118.479C96.3819 115.907 94.8389 112.949 91.4985 112.532C87.7492 112.067 78.3546 110.101 74.965 110.882C80.6521 109.571 92.7612 106.946 96.2266 103.052C100.613 98.127 101.461 86.9281 103.085 80.3516Z"
            fill="#BB522F" />
    </g>
    <defs>
        <clipPath id="clip0_15_286">
            <rect width="67.9722" height="62.9743" fill="white" transform="translate(0 82.189) rotate(-53.462)" />
        </clipPath>
        <clipPath id="clip1_15_286">
            <rect width="34.3634" height="31.4505" fill="white"
                transform="translate(68.0624 27.6096) rotate(-53.462)" />
        </clipPath>
        <clipPath id="clip2_15_286">
            <rect width="45.4596" height="41.6061" fill="white" transform="translate(73.2252 113.23) rotate(-53.462)" />
        </clipPath>
    </defs>
</svg>